<svg xmlns="http://www.w3.org/2000/svg" xmlns:xlink="http://www.w3.org/1999/xlink" width="500" zoomAndPan="magnify" viewBox="0 0 375 374.999991" height="500" preserveAspectRatio="xMidYMid meet" version="1.0"><defs><clipPath id="95674d7129"><path d="M 128 257 L 244 257 L 244 372.355469 L 128 372.355469 Z M 128 257 " clip-rule="nonzero"/></clipPath><clipPath id="7308179adb"><path d="M 165 2.605469 L 207 2.605469 L 207 45 L 165 45 Z M 165 2.605469 " clip-rule="nonzero"/></clipPath></defs><path fill="#f3a849" d="M 186.398438 201.914062 C 186.289062 201.914062 186.183594 201.914062 186.082031 201.90625 C 185.125 201.972656 184.148438 201.746094 183.289062 201.230469 L 73.953125 135.628906 C 72.503906 134.761719 71.621094 133.183594 71.621094 131.492188 C 71.628906 129.800781 72.519531 128.230469 73.972656 127.371094 L 183.632812 62.414062 C 185.140625 61.519531 187.007812 61.519531 188.515625 62.402344 L 298.785156 127.363281 C 300.246094 128.222656 301.144531 129.789062 301.152344 131.492188 C 301.160156 133.191406 300.269531 134.761719 298.8125 135.628906 L 188.859375 201.230469 C 188.101562 201.6875 187.25 201.914062 186.398438 201.914062 Z M 85.792969 131.535156 L 186.082031 191.707031 L 286.929688 131.542969 L 186.082031 72.125 Z M 85.792969 131.535156 " fill-opacity="1" fill-rule="nonzero"/><path fill="#f3a849" d="M 234.542969 298.324219 C 233.96875 298.324219 233.382812 298.214844 232.832031 298.007812 C 231.640625 297.558594 230.671875 296.640625 230.148438 295.472656 C 222.460938 278.207031 205.285156 267.050781 186.398438 267.050781 C 167.671875 267.050781 150.554688 278.070312 142.800781 295.132812 C 141.707031 297.53125 138.882812 298.597656 136.472656 297.53125 L 74.464844 269.917969 C 72.730469 269.140625 71.613281 267.425781 71.613281 265.53125 L 71.613281 131.507812 C 71.613281 129.773438 72.546875 128.179688 74.046875 127.332031 C 75.546875 126.480469 77.398438 126.503906 78.882812 127.390625 L 186.082031 191.707031 L 293.882812 127.390625 C 295.367188 126.503906 297.210938 126.488281 298.710938 127.339844 C 300.210938 128.191406 301.144531 129.789062 301.144531 131.515625 L 301.144531 265.53125 C 301.144531 267.414062 300.042969 269.125 298.328125 269.910156 L 236.519531 297.90625 C 235.894531 298.183594 235.21875 298.324219 234.542969 298.324219 Z M 186.398438 257.445312 C 207.460938 257.445312 226.738281 268.992188 236.777344 287.234375 L 291.546875 262.421875 L 291.546875 139.972656 L 188.859375 201.238281 C 188.007812 201.746094 187.03125 201.972656 186.074219 201.90625 C 185.113281 201.972656 184.140625 201.746094 183.28125 201.230469 L 81.21875 139.996094 L 81.21875 262.414062 L 136.207031 286.902344 C 146.300781 268.859375 165.511719 257.445312 186.398438 257.445312 Z M 186.398438 257.445312 " fill-opacity="1" fill-rule="nonzero"/><path fill="#f3a849" d="M 186.398438 267.050781 C 183.746094 267.050781 181.597656 264.898438 181.597656 262.246094 L 181.597656 197.109375 C 181.597656 194.460938 183.746094 192.308594 186.398438 192.308594 C 189.050781 192.308594 191.203125 194.460938 191.203125 197.109375 L 191.203125 262.246094 C 191.203125 264.898438 189.050781 267.050781 186.398438 267.050781 Z M 186.398438 267.050781 " fill-opacity="1" fill-rule="nonzero"/><g clip-path="url(#95674d7129)"><path fill="#f3a849" d="M 186.398438 372.390625 C 154.707031 372.390625 128.925781 346.609375 128.925781 314.917969 C 128.925781 283.222656 154.707031 257.445312 186.398438 257.445312 C 218.089844 257.445312 243.871094 283.222656 243.871094 314.917969 C 243.871094 346.609375 218.089844 372.390625 186.398438 372.390625 Z M 186.398438 267.050781 C 160 267.050781 138.53125 288.519531 138.53125 314.917969 C 138.53125 341.316406 160 362.785156 186.398438 362.785156 C 212.789062 362.785156 234.265625 341.316406 234.265625 314.917969 C 234.265625 288.519531 212.789062 267.050781 186.398438 267.050781 Z M 186.398438 267.050781 " fill-opacity="1" fill-rule="nonzero"/></g><path fill="#f3a849" d="M 164.3125 319.71875 C 163.679688 319.71875 163.042969 319.6875 162.417969 319.609375 C 159.785156 319.300781 157.898438 316.910156 158.207031 314.273438 C 158.515625 311.640625 160.910156 309.765625 163.546875 310.0625 C 163.796875 310.097656 164.054688 310.105469 164.3125 310.105469 C 167.890625 310.105469 170.808594 307.195312 170.808594 303.609375 C 170.808594 300.035156 167.898438 297.125 164.3125 297.125 C 162.042969 297.125 159.917969 298.332031 158.75 300.265625 C 157.382812 302.542969 154.433594 303.277344 152.164062 301.910156 C 149.886719 300.542969 149.152344 297.589844 150.519531 295.324219 C 153.414062 290.511719 158.699219 287.527344 164.3125 287.527344 C 173.183594 287.527344 180.402344 294.746094 180.402344 303.617188 C 180.402344 312.492188 173.191406 319.71875 164.3125 319.71875 Z M 164.3125 319.71875 " fill-opacity="1" fill-rule="nonzero"/><path fill="#f3a849" d="M 164.3125 342.308594 C 158.699219 342.308594 153.414062 339.320312 150.519531 334.511719 C 149.152344 332.234375 149.886719 329.292969 152.164062 327.925781 C 154.441406 326.554688 157.390625 327.289062 158.75 329.566406 C 159.917969 331.507812 162.050781 332.710938 164.3125 332.710938 C 167.890625 332.710938 170.808594 329.800781 170.808594 326.214844 C 170.808594 322.628906 167.898438 319.71875 164.3125 319.71875 C 164.054688 319.71875 163.804688 319.734375 163.554688 319.761719 C 160.925781 320.078125 158.527344 318.203125 158.21875 315.566406 C 157.898438 312.933594 159.785156 310.539062 162.410156 310.230469 C 163.035156 310.15625 163.679688 310.113281 164.3125 310.113281 C 173.183594 310.113281 180.402344 317.335938 180.402344 326.207031 C 180.402344 335.078125 173.191406 342.308594 164.3125 342.308594 Z M 164.3125 342.308594 " fill-opacity="1" fill-rule="nonzero"/><path fill="#f3a849" d="M 195.570312 342.308594 L 192.460938 342.308594 C 189.808594 342.308594 187.660156 340.15625 187.660156 337.503906 L 187.660156 292.328125 C 187.660156 289.679688 189.808594 287.527344 192.460938 287.527344 L 195.570312 287.527344 C 210.671875 287.527344 222.960938 299.816406 222.960938 314.917969 C 222.960938 330.015625 210.679688 342.308594 195.570312 342.308594 Z M 197.273438 297.214844 L 197.273438 332.625 C 206.285156 331.769531 213.363281 324.15625 213.363281 314.925781 C 213.355469 305.6875 206.285156 298.074219 197.273438 297.214844 Z M 197.273438 297.214844 " fill-opacity="1" fill-rule="nonzero"/><path fill="#f3a849" d="M 186.074219 71.351562 C 183.421875 71.351562 181.269531 69.199219 181.269531 66.546875 L 181.269531 39.582031 C 181.269531 36.933594 183.421875 34.78125 186.074219 34.78125 C 188.726562 34.78125 190.875 36.933594 190.875 39.582031 L 190.875 66.546875 C 190.875 69.207031 188.734375 71.351562 186.074219 71.351562 Z M 186.074219 71.351562 " fill-opacity="1" fill-rule="nonzero"/><g clip-path="url(#7308179adb)"><path fill="#f3a849" d="M 186.074219 44.386719 C 174.550781 44.386719 165.171875 35.015625 165.171875 23.484375 C 165.171875 11.953125 174.542969 2.578125 186.074219 2.578125 C 197.597656 2.578125 206.96875 11.953125 206.96875 23.484375 C 206.96875 35.015625 197.597656 44.386719 186.074219 44.386719 Z M 186.074219 12.191406 C 179.84375 12.191406 174.777344 17.261719 174.777344 23.492188 C 174.777344 29.71875 179.84375 34.789062 186.074219 34.789062 C 192.300781 34.789062 197.371094 29.71875 197.371094 23.492188 C 197.371094 17.261719 192.300781 12.191406 186.074219 12.191406 Z M 186.074219 12.191406 " fill-opacity="1" fill-rule="nonzero"/></g><path fill="#f3a849" d="M 319.695312 283.808594 C 318.878906 283.808594 318.054688 283.601562 317.304688 283.167969 L 293.949219 269.683594 C 291.65625 268.359375 290.863281 265.421875 292.191406 263.121094 C 293.515625 260.828125 296.449219 260.035156 298.753906 261.363281 L 322.105469 274.84375 C 324.398438 276.171875 325.191406 279.105469 323.867188 281.40625 C 322.972656 282.949219 321.355469 283.808594 319.695312 283.808594 Z M 319.695312 283.808594 " fill-opacity="1" fill-rule="nonzero"/><path fill="#f3a849" d="M 333.605469 307.964844 C 329.984375 307.964844 326.410156 307.011719 323.191406 305.152344 C 318.355469 302.359375 314.894531 297.859375 313.453125 292.464844 C 312.007812 287.066406 312.75 281.441406 315.535156 276.605469 C 318.328125 271.769531 322.832031 268.308594 328.226562 266.867188 C 333.613281 265.421875 339.25 266.164062 344.085938 268.949219 C 354.066406 274.710938 357.5 287.519531 351.730469 297.5 C 348.9375 302.335938 344.433594 305.796875 339.039062 307.238281 C 337.25 307.730469 335.421875 307.964844 333.605469 307.964844 Z M 333.664062 275.761719 C 332.679688 275.761719 331.695312 275.886719 330.71875 276.152344 C 327.808594 276.9375 325.367188 278.804688 323.867188 281.414062 C 322.355469 284.023438 321.957031 287.066406 322.742188 289.988281 C 323.523438 292.90625 325.390625 295.339844 328 296.847656 C 330.609375 298.359375 333.65625 298.757812 336.574219 297.972656 C 339.492188 297.191406 341.925781 295.324219 343.433594 292.714844 C 344.945312 290.101562 345.34375 287.058594 344.558594 284.140625 C 343.777344 281.222656 341.910156 278.789062 339.300781 277.28125 C 337.546875 276.269531 335.613281 275.761719 333.664062 275.761719 Z M 333.664062 275.761719 " fill-opacity="1" fill-rule="nonzero"/><path fill="#f3a849" d="M 53.066406 283.808594 C 51.410156 283.808594 49.792969 282.949219 48.90625 281.40625 C 47.582031 279.113281 48.367188 276.171875 50.667969 274.84375 L 74.019531 261.363281 C 76.3125 260.035156 79.257812 260.820312 80.582031 263.121094 C 81.910156 265.414062 81.125 268.359375 78.824219 269.683594 L 55.46875 283.167969 C 54.710938 283.609375 53.886719 283.808594 53.066406 283.808594 Z M 53.066406 283.808594 " fill-opacity="1" fill-rule="nonzero"/><path fill="#f3a849" d="M 39.160156 307.964844 C 37.34375 307.964844 35.515625 307.722656 33.714844 307.238281 C 28.320312 305.796875 23.820312 302.335938 21.027344 297.5 C 18.234375 292.664062 17.492188 287.035156 18.941406 281.640625 C 20.382812 276.246094 23.84375 271.742188 28.679688 268.949219 C 38.660156 263.1875 51.46875 266.625 57.230469 276.597656 C 60.023438 281.433594 60.765625 287.058594 59.3125 292.453125 C 57.871094 297.847656 54.410156 302.351562 49.574219 305.144531 C 46.355469 307.011719 42.777344 307.964844 39.160156 307.964844 Z M 39.101562 275.761719 C 37.183594 275.761719 35.25 276.246094 33.472656 277.269531 C 30.863281 278.78125 28.996094 281.214844 28.214844 284.132812 C 27.429688 287.042969 27.828125 290.085938 29.339844 292.703125 C 30.847656 295.3125 33.28125 297.191406 36.199219 297.964844 C 39.109375 298.75 42.164062 298.347656 44.773438 296.839844 C 47.382812 295.332031 49.257812 292.894531 50.03125 289.976562 C 50.808594 287.058594 50.417969 284.023438 48.90625 281.40625 C 46.816406 277.789062 43.011719 275.761719 39.101562 275.761719 Z M 39.101562 275.761719 " fill-opacity="1" fill-rule="nonzero"/></svg>