<svg xmlns="http://www.w3.org/2000/svg" xmlns:xlink="http://www.w3.org/1999/xlink" width="500" zoomAndPan="magnify" viewBox="0 0 375 374.999991" height="500" preserveAspectRatio="xMidYMid meet" version="1.0"><defs><clipPath id="51a489dd01"><path d="M 0 64.144531 L 193 64.144531 L 193 307 L 0 307 Z M 0 64.144531 " clip-rule="nonzero"/></clipPath><clipPath id="2989e862f8"><path d="M 207 125 L 375 125 L 375 310.894531 L 207 310.894531 Z M 207 125 " clip-rule="nonzero"/></clipPath></defs><g clip-path="url(#51a489dd01)"><path fill="#ffffff" d="M 108.6875 64.144531 C 118.835938 63.957031 128.855469 64.984375 138.753906 67.230469 C 147.132812 69.0625 154.875 72.375 161.980469 77.171875 C 165.234375 79.535156 168.125 82.28125 170.65625 85.40625 C 173.1875 88.53125 175.269531 91.929688 176.90625 95.605469 C 178.785156 100.121094 180.175781 104.785156 181.070312 109.59375 C 181.96875 114.402344 182.355469 119.253906 182.230469 124.144531 C 182.441406 129.515625 181.878906 134.804688 180.535156 140.007812 C 179.191406 145.210938 177.128906 150.113281 174.34375 154.710938 C 171.414062 159.050781 167.957031 162.925781 163.980469 166.332031 C 160 169.738281 155.640625 172.550781 150.898438 174.777344 C 154.089844 175.636719 157.183594 176.773438 160.171875 178.179688 C 163.164062 179.589844 166.007812 181.25 168.703125 183.160156 C 171.402344 185.074219 173.910156 187.207031 176.226562 189.566406 C 178.546875 191.921875 180.640625 194.464844 182.507812 197.191406 C 184.304688 200.085938 185.882812 203.101562 187.238281 206.230469 C 188.59375 209.359375 189.714844 212.570312 190.597656 215.863281 C 191.484375 219.15625 192.125 222.496094 192.519531 225.882812 C 192.914062 229.269531 193.058594 232.667969 192.957031 236.074219 C 193.074219 241.539062 192.578125 246.945312 191.460938 252.296875 C 190.347656 257.648438 188.644531 262.804688 186.351562 267.765625 C 184.230469 272.09375 181.640625 276.117188 178.578125 279.839844 C 175.519531 283.5625 172.070312 286.878906 168.230469 289.792969 C 160.261719 295.605469 151.515625 299.800781 141.996094 302.375 C 132.15625 305.097656 122.136719 306.445312 111.929688 306.417969 L 0.394531 306.417969 L 0.394531 64.144531 Z M 102.253906 162.132812 C 106.226562 162.296875 110.113281 161.800781 113.914062 160.644531 C 117.71875 159.488281 121.222656 157.738281 124.429688 155.390625 C 125.96875 154.019531 127.324219 152.496094 128.503906 150.808594 C 129.683594 149.121094 130.652344 147.324219 131.410156 145.410156 C 132.167969 143.5 132.695312 141.523438 132.992188 139.488281 C 133.289062 137.453125 133.347656 135.410156 133.167969 133.363281 C 133.375 128.503906 132.449219 123.871094 130.386719 119.46875 C 129.527344 117.742188 128.441406 116.167969 127.128906 114.753906 C 125.816406 113.339844 124.328125 112.136719 122.671875 111.148438 C 119.277344 108.949219 115.582031 107.523438 111.589844 106.871094 C 107.292969 106.039062 102.957031 105.664062 98.582031 105.746094 L 50.921875 105.746094 L 50.921875 162.351562 L 102.253906 162.351562 Z M 105.03125 265.28125 C 109.851562 265.34375 114.613281 264.832031 119.308594 263.738281 C 123.621094 262.785156 127.605469 261.058594 131.253906 258.566406 C 134.851562 256.054688 137.625 252.835938 139.570312 248.902344 C 141.824219 243.898438 142.816406 238.65625 142.550781 233.171875 C 142.789062 230.710938 142.75 228.25 142.429688 225.796875 C 142.105469 223.34375 141.511719 220.960938 140.644531 218.640625 C 139.773438 216.324219 138.65625 214.136719 137.289062 212.074219 C 135.917969 210.015625 134.332031 208.136719 132.535156 206.4375 C 130.640625 205.042969 128.640625 203.820312 126.539062 202.773438 C 124.433594 201.726562 122.253906 200.863281 120 200.195312 C 117.75 199.523438 115.453125 199.050781 113.121094 198.777344 C 110.785156 198.503906 108.445312 198.433594 106.097656 198.566406 L 50.921875 198.566406 L 50.921875 265.28125 Z M 105.03125 265.28125 " fill-opacity="1" fill-rule="nonzero"/></g><g clip-path="url(#2989e862f8)"><path fill="#ffffff" d="M 264.921875 264.386719 C 266.90625 266.222656 269.050781 267.84375 271.363281 269.246094 C 273.675781 270.648438 276.105469 271.800781 278.652344 272.707031 C 281.199219 273.617188 283.8125 274.257812 286.488281 274.632812 C 289.167969 275.011719 291.855469 275.113281 294.554688 274.945312 C 298.832031 275.050781 303.015625 274.472656 307.101562 273.203125 C 311.1875 271.933594 314.964844 270.046875 318.429688 267.535156 C 321.25 265.699219 323.699219 263.460938 325.777344 260.820312 C 327.855469 258.175781 329.457031 255.269531 330.574219 252.097656 L 370.871094 252.097656 C 369.808594 256.578125 368.363281 260.933594 366.539062 265.160156 C 364.714844 269.390625 362.542969 273.429688 360.015625 277.28125 C 357.488281 281.128906 354.652344 284.734375 351.496094 288.089844 C 348.34375 291.445312 344.925781 294.503906 341.238281 297.265625 C 337.699219 299.617188 334 301.679688 330.136719 303.457031 C 326.277344 305.234375 322.304688 306.707031 318.214844 307.871094 C 314.128906 309.03125 309.972656 309.875 305.757812 310.394531 C 301.539062 310.914062 297.304688 311.105469 293.058594 310.972656 C 286.957031 311.050781 280.910156 310.523438 274.914062 309.386719 C 268.921875 308.253906 263.101562 306.53125 257.453125 304.226562 C 252.34375 302.09375 247.523438 299.4375 242.996094 296.253906 C 238.464844 293.070312 234.332031 289.433594 230.597656 285.347656 C 226.875 281.066406 223.601562 276.464844 220.765625 271.550781 C 217.933594 266.636719 215.597656 261.492188 213.761719 256.125 C 209.601562 244.039062 207.609375 231.601562 207.789062 218.816406 C 207.710938 206.246094 209.769531 194.035156 213.960938 182.1875 C 214.652344 180.132812 215.425781 178.113281 216.277344 176.121094 C 217.128906 174.128906 218.058594 172.175781 219.066406 170.257812 C 220.070312 168.335938 221.152344 166.460938 222.304688 164.628906 C 223.457031 162.792969 224.679688 161.007812 225.972656 159.273438 C 227.269531 157.535156 228.628906 155.851562 230.054688 154.21875 C 231.480469 152.589844 232.96875 151.019531 234.515625 149.503906 C 236.066406 147.992188 237.671875 146.542969 239.335938 145.15625 C 241 143.765625 242.714844 142.449219 244.484375 141.195312 C 246.25 139.945312 248.066406 138.761719 249.925781 137.652344 C 251.785156 136.542969 253.6875 135.507812 255.628906 134.550781 C 257.570312 133.589844 259.546875 132.707031 261.554688 131.902344 C 263.566406 131.097656 265.605469 130.375 267.675781 129.730469 C 269.742188 129.085938 271.832031 128.523438 273.945312 128.042969 C 276.054688 127.566406 278.183594 127.167969 280.328125 126.855469 C 282.46875 126.542969 284.621094 126.316406 286.78125 126.171875 C 288.945312 126.03125 291.105469 125.972656 293.273438 126 C 299.71875 125.863281 306.078125 126.539062 312.351562 128.023438 C 318.625 129.507812 324.613281 131.757812 330.3125 134.765625 C 335.464844 137.59375 340.238281 140.960938 344.628906 144.867188 C 349.019531 148.777344 352.914062 153.128906 356.316406 157.921875 C 359.800781 162.949219 362.777344 168.261719 365.25 173.855469 C 367.722656 179.449219 369.648438 185.226562 371.027344 191.1875 C 374.0625 204.058594 375.128906 217.089844 374.222656 230.285156 L 254.195312 230.285156 C 253.953125 233.339844 254.007812 236.386719 254.351562 239.429688 C 254.699219 242.472656 255.328125 245.457031 256.25 248.378906 C 257.167969 251.296875 258.355469 254.105469 259.816406 256.796875 C 261.273438 259.492188 262.976562 262.019531 264.921875 264.386719 Z M 317.582031 172.246094 C 315.902344 170.566406 314.0625 169.082031 312.066406 167.796875 C 310.070312 166.511719 307.957031 165.449219 305.734375 164.617188 C 303.507812 163.785156 301.222656 163.195312 298.871094 162.851562 C 296.519531 162.507812 294.160156 162.417969 291.792969 162.582031 C 288.648438 162.460938 285.539062 162.746094 282.46875 163.429688 C 279.398438 164.117188 276.46875 165.179688 273.671875 166.625 C 269.199219 169.089844 265.359375 172.3125 262.160156 176.289062 C 259.324219 180.015625 257.265625 184.132812 255.984375 188.640625 C 254.839844 192.375 254.128906 196.195312 253.855469 200.09375 L 328.199219 200.09375 C 327.875 195.027344 326.808594 190.121094 325.003906 185.378906 C 323.199219 180.632812 320.734375 176.261719 317.613281 172.261719 Z M 317.582031 172.246094 " fill-opacity="1" fill-rule="nonzero"/></g><path fill="#ffffff" d="M 244.273438 80.320312 L 337.429688 80.320312 L 337.429688 104.140625 L 244.273438 104.140625 Z M 244.273438 80.320312 " fill-opacity="1" fill-rule="nonzero"/></svg>