<svg xmlns="http://www.w3.org/2000/svg" xmlns:xlink="http://www.w3.org/1999/xlink" width="500" zoomAndPan="magnify" viewBox="0 0 375 374.999991" height="500" preserveAspectRatio="xMidYMid meet" version="1.0"><defs><clipPath id="2413c603c6"><path d="M 2 179 L 136 179 L 136 373.09375 L 2 373.09375 Z M 2 179 " clip-rule="nonzero"/></clipPath></defs><path fill="#f3a849" d="M 121.992188 81.144531 C 121.992188 85.246094 118.660156 88.578125 114.5625 88.578125 L 83.417969 88.578125 L 87.640625 84.371094 L 121.992188 50.136719 Z M 164.542969 34.796875 L 126.492188 34.796875 C 126.464844 34.796875 126.433594 34.804688 126.402344 34.804688 C 126.140625 34.816406 125.882812 34.832031 125.628906 34.882812 C 125.605469 34.886719 125.585938 34.894531 125.5625 34.898438 C 125.324219 34.953125 125.097656 35.023438 124.871094 35.109375 C 124.792969 35.140625 124.71875 35.175781 124.644531 35.210938 C 124.472656 35.289062 124.304688 35.378906 124.136719 35.480469 C 124.070312 35.523438 124 35.558594 123.9375 35.601562 C 123.71875 35.753906 123.507812 35.917969 123.320312 36.113281 L 69.347656 89.890625 C 69.152344 90.082031 68.992188 90.292969 68.835938 90.511719 C 68.792969 90.578125 68.753906 90.644531 68.714844 90.710938 C 68.609375 90.875 68.515625 91.046875 68.4375 91.222656 C 68.40625 91.296875 68.371094 91.367188 68.339844 91.4375 C 68.25 91.683594 68.164062 91.929688 68.117188 92.1875 C 68.113281 92.191406 68.113281 92.199219 68.113281 92.203125 C 68.058594 92.457031 68.039062 92.722656 68.03125 92.984375 C 68.03125 93.015625 68.023438 93.046875 68.023438 93.078125 L 68.023438 168.371094 C 68.023438 170.859375 70.039062 172.875 72.523438 172.875 C 75.007812 172.875 77.027344 170.859375 77.027344 168.371094 L 77.027344 97.578125 L 114.5625 97.578125 C 123.625 97.578125 130.996094 90.207031 130.996094 81.144531 L 130.996094 43.800781 L 164.542969 43.800781 C 167.03125 43.800781 169.042969 41.78125 169.042969 39.296875 C 169.042969 36.8125 167.03125 34.796875 164.542969 34.796875 " fill-opacity="1" fill-rule="nonzero"/><path fill="#f3a849" d="M 338.140625 203.550781 C 340.40625 200.316406 343.421875 197.574219 346.851562 195.625 L 353.226562 192.011719 L 351.875 199.296875 C 351.179688 203.085938 349.707031 206.601562 347.5 209.757812 L 313.089844 258.972656 L 245.609375 355.46875 C 244.75 356.699219 243.464844 357.519531 241.988281 357.78125 C 240.515625 358.042969 239.023438 357.714844 237.792969 356.851562 C 236.5625 355.996094 235.746094 354.707031 235.480469 353.230469 C 235.222656 351.753906 235.550781 350.265625 236.410156 349.039062 Z M 115.160156 330.804688 C 112.671875 330.804688 110.65625 332.816406 110.65625 335.304688 C 110.65625 337.785156 112.671875 339.804688 115.160156 339.804688 L 231.886719 339.804688 L 229.035156 343.878906 C 226.796875 347.078125 225.941406 350.960938 226.621094 354.800781 C 227.304688 358.648438 229.4375 361.996094 232.636719 364.226562 C 235.179688 366.007812 238.097656 366.859375 240.988281 366.859375 C 245.605469 366.859375 250.148438 364.691406 252.984375 360.628906 L 312.320312 275.777344 L 312.320312 322.132812 C 312.320312 326.914062 308.429688 330.804688 303.648438 330.804688 L 288.988281 330.804688 C 286.503906 330.804688 284.488281 332.816406 284.488281 335.304688 C 284.488281 337.785156 286.503906 339.804688 288.988281 339.804688 L 303.648438 339.804688 C 313.390625 339.804688 321.320312 331.875 321.320312 322.132812 L 321.320312 262.90625 L 354.875 214.917969 C 357.824219 210.699219 359.792969 205.996094 360.730469 200.9375 L 363.832031 184.144531 C 364.152344 182.421875 363.445312 180.675781 362.015625 179.660156 C 360.59375 178.640625 358.707031 178.542969 357.1875 179.410156 L 342.410156 187.796875 C 337.816406 190.402344 333.789062 194.066406 330.765625 198.398438 L 321.320312 211.902344 L 321.320312 111.945312 C 321.320312 109.464844 319.304688 107.445312 316.820312 107.445312 C 314.332031 107.445312 312.320312 109.464844 312.320312 111.945312 L 312.320312 222.238281 C 312.320312 222.921875 312.480469 223.5625 312.757812 224.148438 L 238.179688 330.804688 L 115.160156 330.804688 " fill-opacity="1" fill-rule="nonzero"/><g clip-path="url(#2413c603c6)"><path fill="#f3a849" d="M 17.734375 323.652344 L 87.789062 338.191406 L 81.625 363.683594 C 69.984375 362.25 35.042969 357.535156 11.96875 349.996094 Z M 14.335938 237.585938 C 14.128906 235.136719 15.171875 232.757812 17.117188 231.222656 L 17.921875 230.585938 C 19.085938 236.980469 21.308594 246.292969 25.34375 254.96875 C 26.105469 256.605469 27.730469 257.574219 29.425781 257.574219 C 30.0625 257.574219 30.707031 257.4375 31.324219 257.152344 C 33.574219 256.105469 34.554688 253.429688 33.503906 251.175781 C 27.261719 237.757812 25.75 221.980469 25.738281 221.824219 C 25.734375 221.796875 25.722656 221.769531 25.722656 221.742188 C 25.714844 221.691406 25.71875 221.644531 25.710938 221.589844 C 25.703125 221.523438 24.769531 215.042969 24.359375 207.203125 C 24.226562 204.703125 25.332031 202.332031 27.320312 200.859375 L 31.570312 197.699219 C 32.238281 208.714844 34.347656 228.035156 40.992188 243.359375 C 41.726562 245.054688 43.382812 246.070312 45.125 246.070312 C 45.722656 246.070312 46.328125 245.949219 46.914062 245.699219 C 49.195312 244.710938 50.242188 242.058594 49.253906 239.777344 C 41.746094 222.46875 40.503906 198.546875 40.304688 191.214844 L 43.027344 189.1875 C 44.882812 187.8125 46.726562 188.382812 47.429688 188.695312 C 48.132812 189.007812 49.792969 189.976562 50.03125 192.273438 L 50.230469 194.257812 C 50.335938 195.46875 52.179688 216.761719 57.011719 234.917969 C 57.542969 236.929688 59.367188 238.261719 61.355469 238.261719 C 61.738281 238.261719 62.125 238.214844 62.511719 238.113281 C 64.917969 237.46875 66.34375 235.003906 65.707031 232.605469 C 62.078125 218.953125 60.164062 202.941406 59.488281 196.4375 L 65.738281 193.1875 C 67.023438 192.519531 68.15625 192.964844 68.585938 193.1875 C 69.011719 193.40625 70.03125 194.085938 70.230469 195.527344 C 72.195312 210.167969 75.589844 230.792969 80.597656 245.910156 C 83 253.140625 87.878906 259.394531 94.335938 263.511719 C 102.175781 268.519531 113.492188 275 124.972656 279.035156 L 123.007812 285.410156 C 121.832031 289.234375 118.359375 291.804688 114.367188 291.808594 C 108.910156 291.816406 100.882812 291.664062 93.730469 290.902344 C 91.515625 290.675781 89.46875 292.085938 88.902344 294.234375 L 80.167969 327.414062 L 26.757812 316.328125 L 30.757812 296.179688 C 31.683594 291.507812 30.878906 286.675781 28.492188 282.566406 C 23.960938 274.773438 16.089844 258.566406 14.335938 237.585938 Z M 5.179688 357.183594 C 33.558594 367.464844 82.507812 372.875 84.578125 373.097656 C 84.738281 373.117188 84.902344 373.125 85.066406 373.125 C 87.121094 373.125 88.945312 371.71875 89.4375 369.679688 L 97.628906 335.785156 C 97.917969 334.601562 97.710938 333.351562 97.058594 332.320312 C 96.402344 331.289062 95.363281 330.570312 94.171875 330.324219 L 88.992188 329.246094 L 96.636719 300.207031 C 103.0625 300.707031 109.621094 300.800781 114.378906 300.808594 C 122.339844 300.800781 129.261719 295.675781 131.613281 288.058594 L 134.882812 277.445312 C 135.242188 276.292969 135.117188 275.050781 134.546875 273.988281 C 133.972656 272.925781 133.003906 272.140625 131.847656 271.800781 C 119.949219 268.316406 107.511719 261.242188 99.171875 255.925781 C 94.457031 252.914062 90.894531 248.347656 89.144531 243.074219 C 84.097656 227.863281 80.71875 206.003906 79.148438 194.332031 C 78.625 190.421875 76.226562 187.011719 72.730469 185.199219 C 69.242188 183.386719 65.074219 183.386719 61.585938 185.203125 L 57.859375 187.140625 C 56.527344 184.195312 54.148438 181.820312 51.054688 180.460938 C 46.589844 178.492188 41.582031 179.054688 37.660156 181.964844 L 21.953125 193.628906 C 17.535156 196.90625 15.074219 202.160156 15.371094 207.679688 C 15.644531 212.941406 16.132812 217.550781 16.464844 220.28125 L 11.546875 224.152344 C 7.214844 227.5625 4.90625 232.863281 5.367188 238.335938 C 7.269531 261.078125 15.800781 278.644531 20.714844 287.09375 C 21.996094 289.304688 22.429688 291.910156 21.929688 294.429688 L 17.945312 314.5 L 15.207031 313.933594 C 12.792969 313.433594 10.425781 314.964844 9.898438 317.375 L 2.316406 351.988281 C 1.832031 354.195312 3.058594 356.414062 5.179688 357.183594 " fill-opacity="1" fill-rule="nonzero"/></g><path fill="#f3a849" d="M 335.644531 95.714844 L 328.867188 24.492188 L 355.6875 21.644531 C 360.644531 45.394531 361.511719 80.652344 361.660156 92.378906 Z M 291.832031 92.011719 C 289.632812 92.335938 288 94.222656 287.992188 96.445312 C 287.964844 103.640625 287.234375 111.625 286.632812 117.054688 C 286.191406 121.023438 283.253906 124.191406 279.320312 124.945312 L 272.777344 126.199219 C 270.019531 114.347656 264.816406 102.382812 260.703125 94.039062 C 257.3125 87.171875 251.628906 81.636719 244.703125 78.464844 C 230.699219 72.042969 211.324219 66.554688 197.535156 63.078125 C 196.132812 62.726562 195.03125 61.75 194.515625 60.398438 C 193.992188 59.046875 194.160156 57.578125 194.960938 56.371094 L 197.847656 52.058594 C 204.226562 53.441406 219.921875 57.09375 233.113281 62.203125 C 233.644531 62.410156 234.195312 62.507812 234.734375 62.507812 C 236.542969 62.507812 238.242188 61.414062 238.933594 59.628906 C 239.832031 57.3125 238.683594 54.707031 236.367188 53.8125 C 218.824219 47.011719 197.828125 42.84375 196.6875 42.621094 L 192.492188 41.71875 C 190.90625 41.378906 190.355469 40.140625 190.195312 39.625 C 190.03125 39.109375 189.773438 37.78125 190.878906 36.59375 L 194.757812 32.414062 C 202.015625 33.421875 225.632812 37.257812 242.042969 46.628906 C 242.746094 47.035156 243.515625 47.222656 244.273438 47.222656 C 245.835938 47.222656 247.355469 46.410156 248.183594 44.953125 C 249.417969 42.796875 248.667969 40.046875 246.511719 38.816406 C 232 30.53125 213.03125 26.320312 202.15625 24.445312 L 205.761719 20.566406 C 207.445312 18.753906 209.925781 17.910156 212.394531 18.320312 C 220.136719 19.589844 226.480469 21.226562 226.546875 21.238281 C 226.59375 21.25 226.648438 21.257812 226.695312 21.269531 C 226.726562 21.273438 226.75 21.285156 226.78125 21.296875 C 226.933594 21.328125 242.394531 24.527344 255.097656 32.226562 C 255.828125 32.671875 256.632812 32.882812 257.425781 32.882812 C 258.949219 32.882812 260.433594 32.109375 261.277344 30.714844 C 262.570312 28.585938 261.890625 25.816406 259.765625 24.53125 C 251.582031 19.566406 242.570312 16.34375 236.34375 14.488281 L 237.058594 13.753906 C 238.800781 11.988281 241.28125 11.210938 243.691406 11.683594 C 264.355469 15.726562 279.601562 25.324219 286.847656 30.683594 C 290.667969 33.511719 295.386719 34.832031 300.136719 34.429688 L 320.601562 32.65625 L 325.769531 86.960938 Z M 358.71875 12.273438 L 323.488281 16.011719 C 321.035156 16.273438 319.25 18.460938 319.484375 20.914062 L 319.746094 23.695312 L 299.363281 25.457031 C 296.804688 25.6875 294.257812 24.964844 292.203125 23.445312 C 284.34375 17.632812 267.8125 7.234375 245.417969 2.851562 C 240.035156 1.792969 234.511719 3.511719 230.644531 7.441406 L 226.257812 11.90625 C 223.578125 11.277344 219.054688 10.289062 213.847656 9.4375 C 208.402344 8.539062 202.910156 10.414062 199.164062 14.441406 L 184.28125 30.46875 C 181.285156 33.695312 180.285156 38.128906 181.609375 42.332031 C 182.707031 45.8125 185.210938 48.515625 188.488281 49.863281 L 187.480469 51.367188 C 185.058594 54.984375 184.550781 59.574219 186.109375 63.632812 C 187.675781 67.691406 191.121094 70.746094 195.335938 71.804688 C 208.757812 75.191406 227.570312 80.507812 240.953125 86.644531 C 246.003906 88.960938 250.148438 93.003906 252.628906 98.023438 C 257 106.890625 262.671875 120.03125 264.828125 132.238281 C 265.039062 133.425781 265.71875 134.476562 266.710938 135.164062 C 267.464844 135.679688 268.355469 135.957031 269.265625 135.957031 C 269.546875 135.957031 269.828125 135.925781 270.109375 135.875 L 281.015625 133.785156 C 288.84375 132.289062 294.699219 125.964844 295.578125 118.050781 C 296.101562 113.351562 296.710938 106.796875 296.921875 100.351562 L 326.625 95.933594 L 327.121094 101.195312 C 327.242188 102.410156 327.84375 103.527344 328.796875 104.285156 C 329.597656 104.929688 330.589844 105.269531 331.605469 105.269531 C 331.792969 105.269531 331.988281 105.257812 332.175781 105.234375 L 366.769531 100.800781 C 369.007812 100.515625 370.691406 98.609375 370.691406 96.34375 C 370.695312 94.261719 370.683594 45.015625 363.574219 15.6875 C 363.039062 13.492188 360.957031 12.039062 358.71875 12.273438 " fill-opacity="1" fill-rule="nonzero"/><path fill="#f3a849" d="M 167.746094 264.015625 L 218.316406 264.015625 L 218.316406 274.785156 C 218.316406 286.402344 208.863281 295.851562 197.25 295.851562 L 188.816406 295.851562 C 177.203125 295.851562 167.746094 286.402344 167.746094 274.785156 Z M 192 105.570312 C 173.363281 105.828125 155.722656 113.253906 142.3125 126.46875 C 128.902344 139.691406 121.234375 157.226562 120.714844 175.847656 C 119.972656 202.410156 133.792969 227.195312 156.789062 240.527344 C 158 241.226562 158.746094 242.554688 158.746094 243.988281 L 158.746094 274.785156 C 158.746094 291.363281 172.234375 304.851562 188.816406 304.851562 L 197.25 304.851562 C 213.828125 304.851562 227.316406 291.363281 227.316406 274.785156 L 227.316406 259.515625 C 227.316406 257.027344 225.304688 255.015625 222.816406 255.015625 L 207.449219 255.015625 L 207.449219 241.941406 C 207.449219 238.101562 209.296875 234.488281 212.390625 232.28125 C 219.957031 226.863281 233.152344 215.363281 236.441406 199.089844 C 236.527344 198.589844 238.597656 186.652344 233.882812 175.667969 C 230.894531 168.710938 224.980469 163.507812 217.664062 161.382812 C 210.382812 159.273438 202.683594 160.484375 196.546875 164.703125 C 194.496094 166.109375 193.976562 168.910156 195.382812 170.957031 C 196.792969 173.011719 199.59375 173.527344 201.644531 172.121094 C 205.550781 169.4375 210.476562 168.675781 215.160156 170.035156 C 219.882812 171.402344 223.691406 174.746094 225.609375 179.214844 C 229.230469 187.664062 227.59375 197.402344 227.597656 197.402344 C 224.9375 210.558594 213.648438 220.3125 207.152344 224.957031 C 201.703125 228.855469 198.449219 235.203125 198.449219 241.941406 L 198.449219 255.015625 L 188.53125 255.015625 L 188.53125 241.941406 C 188.53125 235.203125 185.28125 228.851562 179.828125 224.957031 C 175.398438 221.789062 169.167969 216.570312 164.644531 209.71875 C 163.273438 207.644531 160.480469 207.074219 158.40625 208.445312 C 156.332031 209.8125 155.761719 212.601562 157.128906 214.675781 C 162.410156 222.679688 169.539062 228.667969 174.59375 232.28125 C 177.683594 234.488281 179.53125 238.101562 179.53125 241.941406 L 179.53125 255.015625 L 167.746094 255.015625 L 167.746094 243.988281 C 167.746094 239.355469 165.28125 235.046875 161.304688 232.742188 C 141.167969 221.0625 129.0625 199.359375 129.710938 176.101562 C 130.644531 142.644531 158.640625 115.042969 192.125 114.570312 C 209.273438 114.347656 225.34375 120.808594 237.507812 132.808594 C 249.679688 144.804688 256.378906 160.820312 256.378906 177.910156 C 256.378906 200.449219 244.242188 221.472656 224.699219 232.777344 C 220.761719 235.054688 218.316406 239.355469 218.316406 243.996094 C 218.316406 246.480469 220.332031 248.496094 222.816406 248.496094 C 225.304688 248.496094 227.316406 246.480469 227.316406 243.996094 C 227.316406 242.554688 228.042969 241.242188 229.210938 240.5625 C 251.519531 227.660156 265.378906 203.648438 265.378906 177.910156 C 265.378906 158.394531 257.726562 140.097656 243.828125 126.394531 C 229.933594 112.695312 211.519531 105.296875 192 105.570312 " fill-opacity="1" fill-rule="nonzero"/><path fill="#f3a849" d="M 69.171875 346.15625 C 68.875 346.210938 68.59375 346.304688 68.328125 346.414062 C 68.054688 346.527344 67.796875 346.664062 67.550781 346.820312 C 67.300781 346.992188 67.074219 347.179688 66.863281 347.382812 C 66.027344 348.226562 65.546875 349.386719 65.546875 350.566406 C 65.546875 351.75 66.027344 352.917969 66.863281 353.75 C 67.074219 353.957031 67.300781 354.144531 67.550781 354.3125 C 67.796875 354.472656 68.054688 354.605469 68.328125 354.722656 C 68.59375 354.832031 68.875 354.921875 69.171875 354.976562 C 69.460938 355.035156 69.757812 355.070312 70.046875 355.070312 C 71.226562 355.070312 72.390625 354.585938 73.234375 353.75 C 74.0625 352.90625 74.546875 351.75 74.546875 350.566406 C 74.546875 349.386719 74.0625 348.226562 73.234375 347.382812 C 72.1875 346.335938 70.628906 345.863281 69.171875 346.15625 " fill-opacity="1" fill-rule="nonzero"/><path fill="#f3a849" d="M 354.050781 77.710938 C 353.941406 77.445312 353.792969 77.183594 353.632812 76.933594 C 353.46875 76.6875 353.277344 76.464844 353.070312 76.25 C 352.871094 76.046875 352.632812 75.859375 352.386719 75.699219 C 352.152344 75.527344 351.882812 75.394531 351.613281 75.28125 C 351.339844 75.167969 351.058594 75.078125 350.769531 75.023438 C 349.304688 74.734375 347.753906 75.203125 346.703125 76.25 C 346.5 76.464844 346.3125 76.6875 346.152344 76.933594 C 345.988281 77.183594 345.851562 77.445312 345.738281 77.710938 C 345.625 77.980469 345.535156 78.273438 345.476562 78.554688 C 345.425781 78.851562 345.390625 79.140625 345.390625 79.433594 C 345.390625 79.726562 345.425781 80.027344 345.476562 80.308594 C 345.535156 80.605469 345.625 80.886719 345.738281 81.152344 C 345.851562 81.425781 345.988281 81.6875 346.152344 81.933594 C 346.3125 82.179688 346.5 82.40625 346.703125 82.617188 C 347.546875 83.453125 348.707031 83.9375 349.890625 83.9375 C 350.183594 83.9375 350.488281 83.914062 350.769531 83.84375 C 351.058594 83.785156 351.339844 83.710938 351.613281 83.597656 C 351.882812 83.484375 352.152344 83.339844 352.386719 83.179688 C 352.632812 83.011719 352.871094 82.820312 353.070312 82.617188 C 353.917969 81.78125 354.390625 80.625 354.390625 79.433594 C 354.390625 79.140625 354.367188 78.851562 354.3125 78.554688 C 354.246094 78.273438 354.167969 77.980469 354.050781 77.710938 " fill-opacity="1" fill-rule="nonzero"/><path fill="#f3a849" d="M 183.523438 183.253906 C 183.710938 183.535156 183.898438 183.832031 184.085938 184.144531 C 187.148438 189.304688 187.867188 195.449219 186.054688 201.011719 L 185.988281 201.210938 C 185.535156 202.542969 184.347656 202.742188 183.859375 202.769531 C 183.339844 202.796875 182.09375 202.71875 181.476562 201.382812 C 178.59375 195.148438 179.285156 189.066406 183.523438 183.253906 Z M 173.308594 205.160156 C 175.1875 209.230469 179.222656 211.777344 183.707031 211.777344 C 183.917969 211.777344 184.128906 211.769531 184.339844 211.757812 C 189.027344 211.507812 193.019531 208.5 194.511719 204.101562 L 194.617188 203.785156 C 197.230469 195.773438 196.210938 186.9375 191.820312 179.546875 C 184.25 166.796875 171.980469 168.121094 169.722656 168.488281 C 154.539062 169.816406 149.660156 183.488281 150.101562 194.839844 C 150.199219 197.324219 152.316406 199.265625 154.773438 199.160156 C 157.261719 199.066406 159.195312 196.972656 159.097656 194.488281 C 158.910156 189.648438 159.65625 178.308594 170.644531 177.445312 C 170.832031 177.425781 171.023438 177.402344 171.210938 177.359375 C 171.25 177.355469 173.519531 176.914062 176.378906 177.777344 C 170.121094 186.273438 169.007812 195.875 173.308594 205.160156 " fill-opacity="1" fill-rule="nonzero"/></svg>