<svg xmlns="http://www.w3.org/2000/svg" xmlns:xlink="http://www.w3.org/1999/xlink" width="500" zoomAndPan="magnify" viewBox="0 0 375 374.999991" height="500" preserveAspectRatio="xMidYMid meet" version="1.0"><defs><clipPath id="3894624d8c"><path d="M 3.644531 30 L 370 30 L 370 229 L 3.644531 229 Z M 3.644531 30 " clip-rule="nonzero"/></clipPath></defs><path fill="#f3a849" d="M 44.609375 355.4375 L 95.90625 355.4375 L 95.90625 186.683594 L 44.609375 226.535156 Z M 44.609375 355.4375 " fill-opacity="1" fill-rule="nonzero"/><path fill="#f3a849" d="M 136.855469 154.859375 L 119.71875 168.179688 L 119.71875 355.445312 L 171.011719 355.445312 L 171.011719 198.867188 C 169.878906 197.835938 168.8125 196.722656 167.867188 195.480469 Z M 136.855469 154.859375 " fill-opacity="1" fill-rule="nonzero"/><path fill="#f3a849" d="M 194.816406 204.636719 L 194.816406 355.445312 L 246.109375 355.445312 L 246.109375 165.5625 L 204.539062 199.730469 C 201.679688 202.097656 198.335938 203.695312 194.816406 204.636719 Z M 194.816406 204.636719 " fill-opacity="1" fill-rule="nonzero"/><path fill="#f3a849" d="M 269.910156 355.4375 L 321.207031 355.4375 L 321.207031 103.84375 L 269.910156 145.992188 Z M 269.910156 355.4375 " fill-opacity="1" fill-rule="nonzero"/><g clip-path="url(#3894624d8c)"><path fill="#f3a849" d="M 358.992188 30.238281 L 350.972656 31.457031 C 343.007812 32.660156 329.96875 34.632812 321.988281 35.832031 L 313.984375 37.054688 C 306.023438 38.257812 303.597656 44.402344 308.628906 50.691406 L 313.6875 57.019531 C 314.496094 58.027344 315.429688 59.203125 316.371094 60.386719 L 190.074219 164.21875 L 150.269531 112.074219 C 148.492188 109.746094 145.855469 108.226562 142.953125 107.851562 C 140.027344 107.476562 137.113281 108.285156 134.789062 110.066406 L 3.644531 211.339844 L 17.125 228.714844 L 139.527344 134.242188 L 179.515625 186.605469 C 181.324219 188.96875 184.015625 190.507812 186.976562 190.847656 C 189.949219 191.203125 192.910156 190.316406 195.21875 188.421875 L 330.082031 77.570312 C 330.757812 78.398438 331.402344 79.203125 331.976562 79.9375 L 337.027344 86.265625 C 342.039062 92.554688 348.566406 91.582031 351.511719 84.0625 L 354.460938 76.53125 C 357.414062 69.019531 362.222656 56.730469 365.164062 49.238281 L 368.128906 41.691406 C 371.070312 34.199219 366.953125 29.035156 358.992188 30.238281 Z M 358.992188 30.238281 " fill-opacity="1" fill-rule="nonzero"/></g></svg>