<svg xmlns="http://www.w3.org/2000/svg" xmlns:xlink="http://www.w3.org/1999/xlink" width="500" zoomAndPan="magnify" viewBox="0 0 375 374.999991" height="500" preserveAspectRatio="xMidYMid meet" version="1.0"><defs><clipPath id="f4155e68df"><path d="M 5 37.5 L 370 37.5 L 370 316.5 L 5 316.5 Z M 5 37.5 " clip-rule="nonzero"/></clipPath></defs><path fill="#f3a849" d="M 114.800781 138.210938 L 152.054688 100.960938 C 151.40625 99.914062 150.726562 98.890625 150.023438 97.890625 L 111.851562 136.058594 Z M 114.800781 138.210938 " fill-opacity="1" fill-rule="nonzero"/><path fill="#f3a849" d="M 108.484375 133.601562 L 147.523438 94.558594 C 146.761719 93.621094 145.976562 92.71875 145.160156 91.832031 L 105.542969 131.453125 Z M 108.484375 133.601562 " fill-opacity="1" fill-rule="nonzero"/><path fill="#f3a849" d="M 102.585938 117.660156 L 136.351562 83.898438 C 135.367188 83.175781 134.363281 82.472656 133.335938 81.8125 L 102.589844 112.558594 L 102.589844 117.660156 Z M 102.585938 117.660156 " fill-opacity="1" fill-rule="nonzero"/><path fill="#f3a849" d="M 102.585938 106.734375 L 129.707031 79.621094 C 128.597656 79.011719 127.472656 78.441406 126.328125 77.898438 L 102.585938 101.636719 Z M 102.585938 106.734375 " fill-opacity="1" fill-rule="nonzero"/><path fill="#f3a849" d="M 102.585938 95.8125 L 122.261719 76.136719 C 121.019531 75.65625 119.753906 75.230469 118.476562 74.828125 L 102.585938 90.714844 Z M 102.585938 95.8125 " fill-opacity="1" fill-rule="nonzero"/><path fill="#f3a849" d="M 102.585938 84.886719 L 113.890625 73.578125 C 112.480469 73.257812 111.042969 73.003906 109.597656 72.78125 L 102.585938 79.792969 Z M 102.585938 84.886719 " fill-opacity="1" fill-rule="nonzero"/><path fill="#f3a849" d="M 102.585938 128.582031 L 142.28125 88.882812 C 141.410156 88.050781 140.523438 87.238281 139.605469 86.460938 L 102.585938 123.480469 Z M 102.585938 128.582031 " fill-opacity="1" fill-rule="nonzero"/><path fill="#f3a849" d="M 104.335938 72.210938 C 103.753906 72.171875 103.171875 72.152344 102.585938 72.128906 L 102.585938 73.96875 Z M 104.335938 72.210938 " fill-opacity="1" fill-rule="nonzero"/><path fill="#f3a849" d="M 121.117188 142.828125 L 155.824219 108.121094 C 155.308594 106.953125 154.757812 105.800781 154.164062 104.675781 L 118.167969 140.675781 Z M 121.117188 142.828125 " fill-opacity="1" fill-rule="nonzero"/><path fill="#f3a849" d="M 133.75 152.054688 L 160.5625 125.242188 C 160.378906 123.757812 160.15625 122.289062 159.871094 120.835938 L 130.808594 149.898438 Z M 133.75 152.054688 " fill-opacity="1" fill-rule="nonzero"/><path fill="#f3a849" d="M 127.429688 147.4375 L 158.722656 116.144531 C 158.355469 114.839844 157.953125 113.546875 157.5 112.277344 L 124.484375 145.292969 Z M 127.429688 147.4375 " fill-opacity="1" fill-rule="nonzero"/><path fill="#f3a849" d="M 146.378906 161.289062 L 158.800781 148.859375 C 159.398438 146.730469 159.878906 144.550781 160.238281 142.335938 L 143.4375 159.136719 Z M 146.378906 161.289062 " fill-opacity="1" fill-rule="nonzero"/><path fill="#f3a849" d="M 140.0625 156.671875 L 160.929688 135.804688 C 160.988281 134.753906 161.019531 133.695312 161.019531 132.625 C 161.019531 131.964844 160.996094 131.316406 160.972656 130.660156 L 137.117188 154.523438 Z M 140.0625 156.671875 " fill-opacity="1" fill-rule="nonzero"/><path fill="#f3a849" d="M 151.5625 165.066406 C 152.980469 162.839844 154.261719 160.523438 155.382812 158.109375 L 149.753906 163.742188 Z M 151.5625 165.066406 " fill-opacity="1" fill-rule="nonzero"/><g clip-path="url(#f4155e68df)"><path fill="#f3a849" d="M 348.898438 316.492188 L 26.09375 316.492188 C 14.828125 316.492188 5.667969 307.328125 5.667969 296.070312 L 5.667969 57.757812 C 5.667969 46.492188 14.832031 37.328125 26.09375 37.328125 L 348.898438 37.328125 C 360.164062 37.328125 369.324219 46.496094 369.324219 57.757812 L 369.324219 296.070312 C 369.328125 307.328125 360.164062 316.492188 348.898438 316.492188 Z M 26.09375 45.5 C 19.335938 45.5 13.835938 50.996094 13.835938 57.757812 L 13.835938 296.070312 C 13.835938 302.828125 19.335938 308.324219 26.09375 308.324219 L 348.898438 308.324219 C 355.65625 308.324219 361.15625 302.828125 361.15625 296.070312 L 361.15625 57.757812 C 361.15625 50.996094 355.65625 45.5 348.898438 45.5 Z M 26.09375 45.5 " fill-opacity="1" fill-rule="nonzero"/></g><path fill="#f3a849" d="M 213.851562 117.742188 L 229.53125 117.742188 L 229.53125 169.0625 L 213.851562 169.0625 Z M 213.851562 117.742188 " fill-opacity="1" fill-rule="nonzero"/><path fill="#f3a849" d="M 238.183594 122.023438 L 253.859375 122.023438 L 253.859375 169.066406 L 238.183594 169.066406 Z M 238.183594 122.023438 " fill-opacity="1" fill-rule="nonzero"/><path fill="#f3a849" d="M 262.507812 130.578125 L 278.183594 130.578125 L 278.183594 169.066406 L 262.507812 169.066406 Z M 262.507812 130.578125 " fill-opacity="1" fill-rule="nonzero"/><path fill="#f3a849" d="M 286.835938 109.183594 L 302.511719 109.183594 L 302.511719 169.0625 L 286.835938 169.0625 Z M 286.835938 109.183594 " fill-opacity="1" fill-rule="nonzero"/><path fill="#f3a849" d="M 311.164062 109.183594 L 326.839844 109.183594 L 326.839844 169.0625 L 311.164062 169.0625 Z M 311.164062 109.183594 " fill-opacity="1" fill-rule="nonzero"/><path fill="#f3a849" d="M 326.058594 204.21875 L 243.730469 244.667969 L 213.765625 226.53125 L 159.722656 251.09375 L 72.164062 258.824219 L 37.683594 283.332031 L 325.808594 283.332031 Z M 326.058594 204.21875 " fill-opacity="1" fill-rule="nonzero"/><path fill="#f3a849" d="M 100.363281 193.023438 C 66.972656 193.023438 39.804688 165.859375 39.804688 132.460938 C 39.804688 99.828125 65.746094 73.152344 98.089844 71.953125 L 98.089844 131.867188 L 98.121094 131.867188 L 148.738281 168.851562 C 148.734375 168.851562 148.734375 168.851562 148.734375 168.851562 C 137.679688 183.519531 120.109375 193.023438 100.363281 193.023438 Z M 100.363281 193.023438 " fill-opacity="1" fill-rule="nonzero"/></svg>