<svg xmlns="http://www.w3.org/2000/svg" xmlns:xlink="http://www.w3.org/1999/xlink" width="500" zoomAndPan="magnify" viewBox="0 0 375 374.999991" height="500" preserveAspectRatio="xMidYMid meet" version="1.0"><path fill="#f2a74b" d="M 75.609375 274.292969 C 95.695312 274.292969 111.992188 257.996094 111.992188 237.910156 C 111.992188 217.824219 95.695312 201.527344 75.609375 201.527344 C 55.527344 201.527344 39.230469 217.824219 39.230469 237.910156 C 39.230469 257.996094 55.527344 274.292969 75.609375 274.292969 Z M 75.609375 274.292969 " fill-opacity="1" fill-rule="nonzero"/><path fill="#f2a74b" d="M 106.785156 283.84375 C 97.90625 289.878906 87.171875 293.429688 75.609375 293.429688 C 64.050781 293.429688 53.316406 289.878906 44.4375 283.800781 C 26.878906 293.667969 15 312.449219 15 333.996094 L 15 341.492188 C 15 349.660156 21.628906 356.171875 29.679688 356.171875 L 107.769531 356.171875 L 107.769531 352.738281 C 107.769531 333.441406 114.953125 315.804688 126.75 302.386719 C 121.660156 294.734375 114.835938 288.378906 106.785156 283.84375 Z M 106.785156 283.84375 " fill-opacity="1" fill-rule="nonzero"/><path fill="#f2a74b" d="M 263.007812 237.910156 C 263.007812 257.996094 279.304688 274.292969 299.390625 274.292969 C 319.472656 274.292969 335.773438 257.996094 335.773438 237.910156 C 335.773438 217.824219 319.472656 201.527344 299.390625 201.527344 C 279.304688 201.527344 263.007812 217.824219 263.007812 237.910156 Z M 263.007812 237.910156 " fill-opacity="1" fill-rule="nonzero"/><path fill="#f2a74b" d="M 330.5625 283.84375 C 321.683594 289.917969 310.910156 293.46875 299.390625 293.46875 C 287.828125 293.46875 277.09375 289.917969 268.175781 283.84375 C 260.164062 288.339844 253.339844 294.652344 248.328125 302.269531 C 260.125 315.6875 267.308594 333.363281 267.308594 352.738281 L 267.308594 356.171875 L 345.320312 356.171875 C 353.488281 356.171875 360 349.660156 360 341.492188 L 360 333.996094 C 360 312.488281 348.121094 293.707031 330.5625 283.84375 Z M 330.5625 283.84375 " fill-opacity="1" fill-rule="nonzero"/><path fill="#f2a74b" d="M 151.136719 256.574219 C 151.136719 276.660156 167.433594 292.957031 187.519531 292.957031 C 207.605469 292.957031 223.902344 276.660156 223.902344 256.574219 C 223.902344 236.488281 207.605469 220.230469 187.519531 220.230469 C 167.394531 220.230469 151.136719 236.488281 151.136719 256.574219 Z M 151.136719 256.574219 " fill-opacity="1" fill-rule="nonzero"/><path fill="#f2a74b" d="M 218.691406 302.546875 C 209.773438 308.621094 199.042969 312.175781 187.519531 312.175781 C 175.957031 312.175781 165.226562 308.621094 156.347656 302.546875 C 138.785156 312.410156 126.910156 331.15625 126.910156 352.699219 L 126.910156 360.238281 C 126.910156 368.367188 133.5 374.957031 141.589844 374.957031 L 233.410156 374.957031 C 241.539062 374.957031 248.089844 368.367188 248.089844 360.238281 L 248.089844 352.699219 C 248.089844 331.15625 236.253906 312.371094 218.691406 302.546875 Z M 218.691406 302.546875 " fill-opacity="1" fill-rule="nonzero"/><path fill="#f2a74b" d="M 187.480469 195.371094 C 223.035156 195.371094 251.878906 166.527344 251.878906 130.972656 C 251.878906 95.417969 223.035156 66.574219 187.480469 66.574219 C 151.925781 66.574219 123.082031 95.417969 123.082031 130.972656 C 123.082031 166.527344 151.925781 195.371094 187.480469 195.371094 Z M 157.175781 117.953125 L 174.183594 116.058594 C 175.128906 115.9375 175.917969 115.347656 176.3125 114.519531 L 183.375 98.933594 C 184.996094 95.378906 190.003906 95.378906 191.625 98.933594 L 198.6875 114.519531 C 199.082031 115.386719 199.871094 115.976562 200.816406 116.058594 L 217.785156 117.953125 C 221.652344 118.386719 223.230469 123.160156 220.351562 125.804688 L 207.722656 137.367188 C 207.011719 137.996094 206.738281 138.945312 206.894531 139.890625 L 210.328125 156.621094 C 211.117188 160.449219 207.050781 163.410156 203.660156 161.476562 L 188.78125 153.03125 C 187.953125 152.558594 186.96875 152.558594 186.136719 153.03125 L 171.300781 161.4375 C 167.90625 163.371094 163.84375 160.410156 164.632812 156.582031 L 168.066406 139.851562 C 168.261719 138.945312 167.949219 137.996094 167.238281 137.367188 L 154.609375 125.84375 C 151.730469 123.160156 153.308594 118.386719 157.175781 117.953125 Z M 157.175781 117.953125 " fill-opacity="1" fill-rule="nonzero"/><path fill="#f2a74b" d="M 187.480469 44.082031 C 192.726562 44.082031 196.949219 39.859375 196.949219 34.613281 L 196.949219 9.515625 C 196.949219 4.265625 192.726562 0.0429688 187.480469 0.0429688 C 182.230469 0.0429688 178.011719 4.265625 178.011719 9.515625 L 178.011719 34.613281 C 178.011719 39.820312 182.273438 44.082031 187.480469 44.082031 Z M 187.480469 44.082031 " fill-opacity="1" fill-rule="nonzero"/><path fill="#f2a74b" d="M 124.421875 58.167969 C 126.277344 60.734375 129.15625 62.074219 132.078125 62.074219 C 134.011719 62.074219 135.945312 61.484375 137.640625 60.261719 C 141.863281 57.183594 142.8125 51.265625 139.734375 47.042969 L 124.976562 26.757812 C 121.898438 22.535156 115.976562 21.589844 111.757812 24.667969 C 107.535156 27.746094 106.585938 33.664062 109.664062 37.886719 Z M 124.421875 58.167969 " fill-opacity="1" fill-rule="nonzero"/><path fill="#f2a74b" d="M 71.035156 100.984375 L 94.90625 108.757812 C 95.894531 109.074219 96.878906 109.230469 97.828125 109.230469 C 101.8125 109.230469 105.523438 106.664062 106.824219 102.679688 C 108.441406 97.707031 105.71875 92.382812 100.746094 90.761719 L 76.875 82.988281 C 71.902344 81.371094 66.574219 84.09375 64.957031 89.066406 C 63.339844 94.039062 66.0625 99.367188 71.035156 100.984375 Z M 71.035156 100.984375 " fill-opacity="1" fill-rule="nonzero"/><path fill="#f2a74b" d="M 94.90625 149.007812 L 71.035156 156.742188 C 66.0625 158.359375 63.339844 163.6875 64.957031 168.65625 C 66.257812 172.644531 69.96875 175.207031 73.953125 175.207031 C 74.902344 175.207031 75.886719 175.050781 76.875 174.734375 L 100.746094 167 C 105.71875 165.382812 108.441406 160.054688 106.824219 155.082031 C 105.246094 150.113281 99.878906 147.390625 94.90625 149.007812 Z M 94.90625 149.007812 " fill-opacity="1" fill-rule="nonzero"/><path fill="#f2a74b" d="M 274.214844 167 L 298.085938 174.734375 C 299.074219 175.050781 300.058594 175.207031 301.007812 175.207031 C 304.992188 175.207031 308.703125 172.644531 310.003906 168.65625 C 311.621094 163.6875 308.898438 158.359375 303.925781 156.742188 L 280.054688 149.007812 C 275.082031 147.390625 269.753906 150.113281 268.136719 155.082031 C 266.519531 160.054688 269.242188 165.382812 274.214844 167 Z M 274.214844 167 " fill-opacity="1" fill-rule="nonzero"/><path fill="#f2a74b" d="M 277.132812 109.230469 C 278.082031 109.230469 279.105469 109.074219 280.054688 108.757812 L 303.925781 100.984375 C 308.898438 99.367188 311.621094 94.039062 310.003906 89.066406 C 308.386719 84.09375 303.058594 81.371094 298.085938 82.988281 L 274.214844 90.761719 C 269.242188 92.382812 266.519531 97.707031 268.136719 102.679688 C 269.4375 106.664062 273.148438 109.230469 277.132812 109.230469 Z M 277.132812 109.230469 " fill-opacity="1" fill-rule="nonzero"/><path fill="#f2a74b" d="M 242.882812 62.074219 C 245.800781 62.074219 248.683594 60.734375 250.539062 58.167969 L 265.296875 37.886719 C 268.375 33.664062 267.425781 27.746094 263.203125 24.667969 C 258.980469 21.589844 253.0625 22.535156 249.984375 26.757812 L 235.226562 47.042969 C 232.148438 51.265625 233.097656 57.183594 237.320312 60.261719 C 239.015625 61.484375 240.949219 62.074219 242.882812 62.074219 Z M 242.882812 62.074219 " fill-opacity="1" fill-rule="nonzero"/></svg>