<svg xmlns="http://www.w3.org/2000/svg" xmlns:xlink="http://www.w3.org/1999/xlink" width="500" zoomAndPan="magnify" viewBox="0 0 375 374.999991" height="500" preserveAspectRatio="xMidYMid meet" version="1.0"><defs><clipPath id="fb3b998472"><path d="M 45.980469 91 L 328.730469 91 L 328.730469 372 L 45.980469 372 Z M 45.980469 91 " clip-rule="nonzero"/></clipPath></defs><path fill="#f3a849" d="M 153.335938 240.238281 C 158.964844 240.238281 163.472656 236.859375 165.347656 231.605469 L 176.984375 199.320312 L 176.984375 70.945312 C 176.984375 57.804688 166.472656 47.296875 153.335938 47.296875 C 140.199219 47.296875 129.6875 57.804688 129.6875 70.945312 L 129.6875 199.320312 L 141.324219 231.605469 C 143.199219 236.859375 148.082031 240.238281 153.335938 240.238281 Z M 140.949219 85.585938 L 147.707031 85.585938 L 147.707031 185.433594 L 140.949219 188.8125 Z M 165.722656 85.585938 L 165.722656 189.1875 L 158.964844 185.808594 L 158.964844 85.585938 Z M 158.214844 219.21875 C 157.089844 218.089844 155.214844 217.339844 153.710938 217.339844 C 152.210938 217.339844 150.332031 218.089844 149.207031 219.21875 L 142.449219 201.199219 L 153.710938 195.191406 L 164.972656 201.199219 Z M 153.335938 58.558594 C 160.09375 58.558594 165.722656 64.1875 165.722656 70.945312 L 165.722656 74.324219 L 140.949219 74.324219 L 140.949219 70.945312 C 140.949219 64.1875 146.578125 58.558594 153.335938 58.558594 Z M 153.335938 58.558594 " fill-opacity="1" fill-rule="nonzero"/><path fill="#f3a849" d="M 200.632812 85.960938 C 200.632812 86.335938 200.632812 86.710938 200.632812 87.085938 L 200.632812 108.105469 C 200.632812 110.359375 201.382812 112.609375 202.886719 114.488281 C 199.882812 128 193.125 174.546875 213.019531 233.105469 C 214.523438 236.859375 218.277344 239.488281 222.78125 239.863281 C 222.78125 239.863281 222.78125 239.863281 223.15625 239.863281 C 228.035156 239.863281 231.789062 237.234375 233.289062 233.480469 C 255.0625 176.800781 246.804688 128.375 243.425781 114.488281 C 244.925781 112.984375 245.679688 110.734375 245.679688 108.480469 L 245.679688 87.460938 C 245.679688 86.710938 245.679688 85.960938 245.300781 85.207031 C 253.183594 79.203125 261.820312 66.816406 256.5625 48.421875 C 250.558594 24.398438 231.414062 6.003906 217.898438 3.753906 C 214.523438 3.003906 211.144531 4.878906 209.640625 7.507812 C 207.765625 10.507812 208.140625 13.886719 210.394531 16.515625 C 211.894531 18.390625 213.394531 22.144531 212.644531 25.523438 C 212.269531 28.527344 210.394531 31.15625 207.765625 33.03125 L 207.390625 33.78125 C 195.003906 43.542969 188.621094 55.179688 189.371094 66.816406 C 190.121094 74.324219 193.875 81.078125 200.632812 85.960938 Z M 234.792969 88.960938 L 234.792969 106.230469 L 211.519531 106.230469 L 211.519531 88.960938 Z M 223.15625 228.601562 C 205.136719 174.921875 211.144531 131.003906 213.769531 117.867188 L 232.914062 117.867188 C 235.542969 131.003906 242.675781 176.425781 223.15625 228.601562 Z M 214.144531 42.792969 C 219.777344 39.039062 223.15625 33.78125 223.90625 27.777344 C 224.28125 24.773438 224.28125 21.394531 223.53125 18.390625 C 232.164062 24.023438 242.300781 36.410156 246.429688 51.425781 C 251.308594 68.691406 239.296875 76.574219 236.292969 78.078125 L 210.015625 78.078125 C 209.640625 78.078125 209.265625 78.078125 208.890625 78.078125 C 204.011719 75.074219 201.007812 70.945312 200.632812 65.6875 C 199.882812 58.183594 204.761719 49.921875 214.144531 42.792969 Z M 214.144531 42.792969 " fill-opacity="1" fill-rule="nonzero"/><path fill="#f3a849" d="M 229.535156 74.699219 C 230.289062 74.699219 231.039062 74.699219 231.789062 74.324219 C 236.667969 72.445312 240.046875 68.691406 241.546875 64.1875 C 244.925781 52.925781 236.292969 39.039062 235.167969 37.535156 C 233.664062 34.910156 229.914062 34.15625 227.285156 36.035156 C 224.65625 37.535156 223.90625 41.289062 225.78125 43.917969 C 228.035156 47.296875 232.164062 56.304688 230.664062 61.183594 C 230.289062 62.3125 229.535156 63.4375 227.285156 64.1875 C 224.28125 65.3125 223.15625 68.691406 224.28125 71.695312 C 225.03125 73.570312 227.285156 74.699219 229.535156 74.699219 Z M 229.535156 74.699219 " fill-opacity="1" fill-rule="nonzero"/><g clip-path="url(#fb3b998472)"><path fill="#f3a849" d="M 306.863281 91.964844 L 267.824219 91.964844 C 264.820312 91.964844 262.195312 94.59375 262.195312 97.597656 C 262.195312 100.597656 264.820312 103.226562 267.824219 103.226562 L 306.863281 103.226562 C 312.871094 103.226562 317.75 108.105469 317.75 114.113281 L 317.75 121.246094 L 267.449219 121.246094 C 264.445312 121.246094 261.820312 123.871094 261.820312 126.875 C 261.820312 129.878906 264.445312 132.503906 267.449219 132.503906 L 317.375 132.503906 L 317.375 262.007812 L 57.242188 262.007812 L 57.242188 132.503906 L 106.414062 132.503906 C 109.417969 132.503906 112.046875 129.878906 112.046875 126.875 C 112.046875 123.871094 109.417969 121.246094 106.414062 121.246094 L 57.242188 121.246094 L 57.242188 114.113281 C 57.242188 108.105469 62.121094 103.226562 68.125 103.226562 L 106.789062 103.226562 C 109.792969 103.226562 112.421875 100.597656 112.421875 97.597656 C 112.421875 94.59375 109.792969 91.964844 106.789062 91.964844 L 68.125 91.964844 C 56.113281 91.964844 45.980469 101.726562 45.980469 114.113281 L 45.980469 278.527344 C 45.980469 290.539062 55.738281 300.671875 68.125 300.671875 L 149.582031 300.671875 L 149.582031 314.1875 C 149.582031 330.703125 140.949219 345.71875 126.683594 353.976562 C 122.929688 356.226562 121.054688 360.734375 122.179688 364.863281 C 123.304688 368.992188 127.433594 371.992188 131.5625 371.992188 L 243.800781 371.992188 C 247.929688 371.992188 252.058594 369.367188 253.183594 364.863281 C 254.3125 360.734375 252.433594 356.226562 248.679688 353.976562 C 234.042969 345.71875 225.03125 330.328125 225.03125 314.1875 L 225.03125 300.296875 L 306.863281 300.296875 C 318.875 300.296875 329.011719 290.539062 329.011719 278.152344 L 329.011719 114.113281 C 329.011719 102.101562 319.25 91.964844 306.863281 91.964844 Z M 237.417969 359.980469 L 138.320312 359.980469 C 152.585938 349.097656 161.21875 331.828125 161.21875 313.433594 L 161.21875 300.296875 L 214.144531 300.296875 L 214.144531 313.433594 C 214.144531 331.828125 222.78125 349.097656 237.417969 359.980469 Z M 306.863281 289.035156 L 68.125 289.035156 C 62.121094 289.035156 57.242188 284.15625 57.242188 278.152344 L 57.242188 272.894531 L 317.75 272.894531 L 317.75 278.152344 C 317.75 284.15625 312.871094 289.035156 306.863281 289.035156 Z M 306.863281 289.035156 " fill-opacity="1" fill-rule="nonzero"/></g></svg>