<svg xmlns="http://www.w3.org/2000/svg" xmlns:xlink="http://www.w3.org/1999/xlink" width="500" zoomAndPan="magnify" viewBox="0 0 375 374.999991" height="500" preserveAspectRatio="xMidYMid meet" version="1.0"><defs><clipPath id="6495cfae00"><path d="M 5.703125 37.542969 L 365.339844 37.542969 L 365.339844 298.175781 L 5.703125 298.175781 Z M 5.703125 37.542969 " clip-rule="nonzero"/></clipPath></defs><g clip-path="url(#6495cfae00)"><path fill="#f3a849" d="M 17.128906 298.175781 L 353.914062 298.175781 C 360.226562 298.175781 365.339844 293.058594 365.339844 286.753906 L 365.339844 71.816406 C 365.339844 65.507812 360.226562 60.390625 353.914062 60.390625 L 155.984375 60.390625 C 152.953125 60.390625 150.046875 59.1875 147.90625 57.046875 L 131.75 40.890625 C 129.605469 38.75 126.699219 37.542969 123.671875 37.542969 L 17.128906 37.542969 C 10.820312 37.542969 5.703125 42.660156 5.703125 48.96875 L 5.703125 286.753906 C 5.703125 293.058594 10.820312 298.175781 17.128906 298.175781 " fill-opacity="1" fill-rule="nonzero"/></g></svg>