<svg xmlns="http://www.w3.org/2000/svg" xmlns:xlink="http://www.w3.org/1999/xlink" width="500" zoomAndPan="magnify" viewBox="0 0 375 374.999991" height="500" preserveAspectRatio="xMidYMid meet" version="1.0"><defs><clipPath id="bdc04b93e5"><path d="M 2 1.496094 L 373 1.496094 L 373 372 L 2 372 Z M 2 1.496094 " clip-rule="nonzero"/></clipPath></defs><g clip-path="url(#bdc04b93e5)"><path fill="#ffffff" d="M 317.839844 317.121094 L 262.945312 317.121094 L 262.945312 231.164062 C 262.945312 210.667969 262.582031 184.28125 234.394531 184.28125 C 205.804688 184.28125 201.429688 206.613281 201.429688 229.671875 L 201.429688 317.117188 L 146.539062 317.117188 L 146.539062 140.355469 L 199.234375 140.355469 L 199.234375 164.511719 L 199.972656 164.511719 C 201.285156 162.269531 202.742188 160.121094 204.34375 158.074219 C 205.949219 156.027344 207.679688 154.097656 209.542969 152.285156 C 211.40625 150.472656 213.382812 148.792969 215.472656 147.246094 C 217.5625 145.699219 219.746094 144.300781 222.023438 143.050781 C 224.304688 141.796875 226.65625 140.707031 229.082031 139.773438 C 231.507812 138.839844 233.984375 138.074219 236.515625 137.472656 C 239.042969 136.875 241.601562 136.449219 244.191406 136.195312 C 246.777344 135.941406 249.371094 135.863281 251.96875 135.957031 C 307.605469 135.957031 317.863281 172.550781 317.863281 220.152344 Z M 84.597656 116.191406 C 83.554688 116.195312 82.515625 116.140625 81.476562 116.039062 C 80.4375 115.9375 79.40625 115.785156 78.382812 115.582031 C 77.359375 115.378906 76.351562 115.125 75.351562 114.824219 C 74.355469 114.519531 73.371094 114.167969 72.410156 113.769531 C 71.445312 113.371094 70.503906 112.925781 69.582031 112.433594 C 68.660156 111.941406 67.769531 111.40625 66.898438 110.828125 C 66.03125 110.25 65.195312 109.628906 64.390625 108.964844 C 63.582031 108.304688 62.808594 107.605469 62.070312 106.867188 C 61.335938 106.128906 60.632812 105.359375 59.972656 104.550781 C 59.308594 103.746094 58.691406 102.910156 58.109375 102.042969 C 57.53125 101.175781 56.992188 100.28125 56.503906 99.359375 C 56.011719 98.441406 55.566406 97.5 55.164062 96.535156 C 54.765625 95.570312 54.414062 94.589844 54.109375 93.59375 C 53.808594 92.59375 53.554688 91.582031 53.351562 90.5625 C 53.148438 89.539062 52.996094 88.507812 52.890625 87.46875 C 52.789062 86.429688 52.738281 85.390625 52.738281 84.347656 C 52.738281 83.304688 52.789062 82.261719 52.890625 81.226562 C 52.992188 80.1875 53.144531 79.15625 53.347656 78.132812 C 53.550781 77.109375 53.804688 76.097656 54.109375 75.101562 C 54.410156 74.101562 54.761719 73.121094 55.160156 72.15625 C 55.558594 71.191406 56.003906 70.25 56.496094 69.332031 C 56.988281 68.410156 57.523438 67.515625 58.105469 66.648438 C 58.683594 65.78125 59.304688 64.945312 59.964844 64.140625 C 60.628906 63.332031 61.328125 62.558594 62.0625 61.824219 C 62.800781 61.085938 63.574219 60.382812 64.378906 59.722656 C 65.1875 59.0625 66.023438 58.441406 66.890625 57.859375 C 67.757812 57.28125 68.652344 56.746094 69.570312 56.253906 C 70.492188 55.761719 71.433594 55.316406 72.398438 54.914062 C 73.363281 54.515625 74.34375 54.164062 75.339844 53.863281 C 76.339844 53.558594 77.351562 53.304688 78.375 53.101562 C 79.398438 52.898438 80.425781 52.746094 81.464844 52.644531 C 82.503906 52.539062 83.542969 52.488281 84.585938 52.488281 C 85.632812 52.488281 86.671875 52.539062 87.710938 52.640625 C 88.75 52.742188 89.78125 52.898438 90.800781 53.101562 C 91.824219 53.304688 92.835938 53.554688 93.835938 53.859375 C 94.835938 54.160156 95.816406 54.511719 96.777344 54.910156 C 97.742188 55.308594 98.683594 55.753906 99.605469 56.246094 C 100.523438 56.738281 101.417969 57.273438 102.285156 57.855469 C 103.15625 58.433594 103.992188 59.054688 104.796875 59.714844 C 105.605469 60.378906 106.378906 61.078125 107.113281 61.8125 C 107.851562 62.550781 108.550781 63.324219 109.214844 64.128906 C 109.875 64.9375 110.496094 65.773438 111.078125 66.640625 C 111.65625 67.507812 112.191406 68.402344 112.683594 69.320312 C 113.175781 70.242188 113.621094 71.183594 114.023438 72.148438 C 114.421875 73.109375 114.773438 74.089844 115.074219 75.089844 C 115.378906 76.085938 115.632812 77.097656 115.835938 78.121094 C 116.039062 79.144531 116.191406 80.175781 116.296875 81.214844 C 116.398438 82.25 116.449219 83.292969 116.449219 84.335938 C 116.449219 85.378906 116.398438 86.417969 116.296875 87.457031 C 116.195312 88.496094 116.042969 89.527344 115.839844 90.550781 C 115.636719 91.574219 115.382812 92.582031 115.078125 93.582031 C 114.777344 94.582031 114.425781 95.5625 114.027344 96.523438 C 113.628906 97.488281 113.183594 98.429688 112.691406 99.351562 C 112.199219 100.269531 111.664062 101.164062 111.082031 102.03125 C 110.503906 102.898438 109.882812 103.738281 109.222656 104.542969 C 108.558594 105.351562 107.859375 106.121094 107.121094 106.859375 C 106.386719 107.597656 105.613281 108.296875 104.808594 108.960938 C 104 109.621094 103.164062 110.242188 102.296875 110.820312 C 101.429688 111.402344 100.535156 111.9375 99.617188 112.429688 C 98.695312 112.921875 97.753906 113.367188 96.789062 113.765625 C 95.824219 114.164062 94.84375 114.515625 93.847656 114.820312 C 92.847656 115.121094 91.835938 115.375 90.8125 115.578125 C 89.789062 115.785156 88.761719 115.9375 87.722656 116.039062 C 86.683594 116.140625 85.644531 116.191406 84.597656 116.191406 M 112.046875 317.121094 L 57.09375 317.121094 L 57.09375 140.355469 L 112.046875 140.355469 Z M 345.207031 1.519531 L 29.511719 1.519531 C 28.625 1.507812 27.742188 1.542969 26.863281 1.617188 C 25.980469 1.695312 25.105469 1.8125 24.234375 1.976562 C 23.363281 2.140625 22.503906 2.34375 21.65625 2.59375 C 20.804688 2.839844 19.96875 3.128906 19.148438 3.457031 C 18.328125 3.785156 17.523438 4.152344 16.738281 4.5625 C 15.953125 4.96875 15.191406 5.414062 14.449219 5.898438 C 13.707031 6.382812 12.992188 6.898438 12.300781 7.453125 C 11.609375 8.007812 10.949219 8.59375 10.316406 9.210938 C 9.683594 9.828125 9.082031 10.476562 8.511719 11.152344 C 7.941406 11.832031 7.40625 12.535156 6.90625 13.265625 C 6.40625 13.996094 5.941406 14.746094 5.515625 15.523438 C 5.089844 16.296875 4.703125 17.09375 4.355469 17.90625 C 4.007812 18.71875 3.699219 19.546875 3.429688 20.390625 C 3.164062 21.234375 2.9375 22.089844 2.753906 22.953125 C 2.574219 23.820312 2.433594 24.691406 2.335938 25.570312 C 2.238281 26.453125 2.183594 27.332031 2.171875 28.21875 L 2.171875 345.191406 C 2.183594 346.074219 2.238281 346.957031 2.335938 347.835938 C 2.429688 348.71875 2.570312 349.589844 2.753906 350.457031 C 2.9375 351.324219 3.160156 352.179688 3.429688 353.023438 C 3.695312 353.867188 4.003906 354.695312 4.351562 355.507812 C 4.699219 356.324219 5.085938 357.117188 5.511719 357.894531 C 5.941406 358.667969 6.402344 359.421875 6.902344 360.152344 C 7.402344 360.882812 7.9375 361.585938 8.507812 362.265625 C 9.078125 362.945312 9.679688 363.59375 10.3125 364.210938 C 10.945312 364.828125 11.605469 365.417969 12.296875 365.96875 C 12.988281 366.523438 13.703125 367.042969 14.445312 367.527344 C 15.183594 368.011719 15.949219 368.457031 16.734375 368.863281 C 17.519531 369.273438 18.324219 369.644531 19.144531 369.972656 C 19.964844 370.304688 20.800781 370.589844 21.652344 370.839844 C 22.503906 371.085938 23.363281 371.292969 24.230469 371.457031 C 25.101562 371.621094 25.976562 371.738281 26.859375 371.816406 C 27.742188 371.894531 28.625 371.929688 29.511719 371.917969 L 345.207031 371.917969 C 346.09375 371.929688 346.980469 371.898438 347.863281 371.820312 C 348.746094 371.746094 349.625 371.628906 350.496094 371.464844 C 351.367188 371.304688 352.230469 371.097656 353.082031 370.851562 C 353.933594 370.605469 354.773438 370.316406 355.597656 369.988281 C 356.421875 369.660156 357.226562 369.292969 358.015625 368.882812 C 358.800781 368.476562 359.566406 368.03125 360.3125 367.546875 C 361.054688 367.0625 361.773438 366.546875 362.46875 365.992188 C 363.160156 365.4375 363.824219 364.851562 364.460938 364.234375 C 365.097656 363.613281 365.699219 362.964844 366.273438 362.289062 C 366.84375 361.609375 367.382812 360.90625 367.882812 360.171875 C 368.386719 359.441406 368.851562 358.6875 369.28125 357.914062 C 369.710938 357.136719 370.097656 356.339844 370.449219 355.523438 C 370.800781 354.710938 371.109375 353.878906 371.378906 353.035156 C 371.648438 352.191406 371.875 351.332031 372.058594 350.464844 C 372.246094 349.597656 372.386719 348.722656 372.488281 347.84375 C 372.585938 346.960938 372.640625 346.078125 372.652344 345.191406 L 372.652344 28.195312 C 372.640625 27.308594 372.585938 26.425781 372.484375 25.542969 C 372.386719 24.664062 372.242188 23.789062 372.058594 22.921875 C 371.871094 22.054688 371.644531 21.199219 371.375 20.355469 C 371.105469 19.507812 370.796875 18.679688 370.445312 17.867188 C 370.09375 17.050781 369.707031 16.257812 369.277344 15.480469 C 368.847656 14.703125 368.382812 13.953125 367.878906 13.222656 C 367.375 12.492188 366.839844 11.785156 366.265625 11.109375 C 365.695312 10.433594 365.09375 9.785156 364.457031 9.164062 C 363.820312 8.546875 363.15625 7.960938 362.464844 7.410156 C 361.769531 6.855469 361.050781 6.335938 360.308594 5.855469 C 359.5625 5.371094 358.796875 4.929688 358.011719 4.519531 C 357.222656 4.113281 356.417969 3.746094 355.59375 3.417969 C 354.769531 3.089844 353.933594 2.800781 353.082031 2.554688 C 352.230469 2.308594 351.367188 2.105469 350.496094 1.945312 C 349.621094 1.785156 348.746094 1.664062 347.863281 1.589844 C 346.980469 1.515625 346.09375 1.484375 345.207031 1.496094 " fill-opacity="1" fill-rule="nonzero"/></g></svg>