<svg xmlns="http://www.w3.org/2000/svg" xmlns:xlink="http://www.w3.org/1999/xlink" width="500" zoomAndPan="magnify" viewBox="0 0 375 374.999991" height="500" preserveAspectRatio="xMidYMid meet" version="1.0"><defs><clipPath id="2c369028f0"><path d="M 72 3.269531 L 291 3.269531 L 291 234 L 72 234 Z M 72 3.269531 " clip-rule="nonzero"/></clipPath><clipPath id="3ba4d85a3b"><path d="M 52.242188 170 L 310.992188 170 L 310.992188 370.019531 L 52.242188 370.019531 Z M 52.242188 170 " clip-rule="nonzero"/></clipPath></defs><g clip-path="url(#2c369028f0)"><path fill="#f3a849" d="M 181.582031 3.269531 C 121.058594 3.269531 72.332031 51.996094 72.332031 112.523438 L 72.332031 233.914062 L 102.679688 233.914062 L 102.679688 112.523438 C 102.679688 68.808594 137.867188 33.617188 181.582031 33.617188 C 225.296875 33.617188 260.488281 68.808594 260.488281 112.523438 L 260.488281 233.914062 L 290.835938 233.914062 L 290.835938 112.523438 C 290.835938 51.996094 242.109375 3.269531 181.582031 3.269531 Z M 181.582031 3.269531 " fill-opacity="1" fill-rule="evenodd"/></g><g clip-path="url(#3ba4d85a3b)"><path fill="#f3a849" d="M 54.027344 170.203125 L 309.140625 170.203125 C 309.339844 170.203125 309.535156 170.242188 309.71875 170.316406 C 309.902344 170.394531 310.066406 170.503906 310.207031 170.644531 C 310.347656 170.785156 310.457031 170.949219 310.535156 171.132812 C 310.609375 171.316406 310.648438 171.511719 310.648438 171.710938 L 310.648438 368.496094 C 310.648438 368.695312 310.609375 368.886719 310.535156 369.074219 C 310.457031 369.257812 310.347656 369.421875 310.207031 369.5625 C 310.066406 369.703125 309.902344 369.8125 309.71875 369.890625 C 309.535156 369.964844 309.339844 370.003906 309.140625 370.003906 L 54.027344 370.003906 C 53.824219 370.003906 53.632812 369.964844 53.449219 369.890625 C 53.265625 369.8125 53.101562 369.703125 52.960938 369.5625 C 52.820312 369.421875 52.710938 369.257812 52.632812 369.074219 C 52.554688 368.886719 52.519531 368.695312 52.519531 368.496094 L 52.519531 171.710938 C 52.519531 171.511719 52.554688 171.316406 52.632812 171.132812 C 52.710938 170.949219 52.820312 170.785156 52.960938 170.644531 C 53.101562 170.503906 53.265625 170.394531 53.449219 170.316406 C 53.632812 170.242188 53.824219 170.203125 54.027344 170.203125 " fill-opacity="1" fill-rule="evenodd"/></g></svg>