<svg xmlns="http://www.w3.org/2000/svg" xmlns:xlink="http://www.w3.org/1999/xlink" width="500" zoomAndPan="magnify" viewBox="0 0 375 374.999991" height="500" preserveAspectRatio="xMidYMid meet" version="1.0"><defs><clipPath id="86747b6466"><path d="M 4.128906 7 L 367 7 L 367 369.519531 L 4.128906 369.519531 Z M 4.128906 7 " clip-rule="nonzero"/></clipPath></defs><path fill="#f2a74b" d="M 260.792969 124.113281 L 289.398438 120.664062 L 260.792969 117.222656 C 250.695312 116.003906 242.734375 108.042969 241.519531 97.945312 L 238.074219 69.339844 L 234.628906 97.945312 C 233.410156 108.042969 225.453125 116.003906 215.355469 117.222656 L 186.746094 120.664062 L 215.355469 124.113281 C 225.453125 125.324219 233.410156 133.285156 234.628906 143.386719 L 238.074219 171.992188 L 241.519531 143.386719 C 242.734375 133.285156 250.695312 125.324219 260.792969 124.113281 " fill-opacity="1" fill-rule="nonzero"/><path fill="#f2a74b" d="M 200.792969 145.816406 L 198.867188 129.824219 L 196.941406 145.816406 C 196.265625 151.460938 191.8125 155.910156 186.167969 156.589844 L 170.175781 158.515625 L 186.167969 160.441406 C 191.8125 161.121094 196.265625 165.570312 196.941406 171.214844 L 198.867188 187.207031 L 200.792969 171.214844 C 201.472656 165.570312 205.921875 161.121094 211.570312 160.441406 L 227.5625 158.515625 L 211.570312 156.589844 C 205.925781 155.910156 201.476562 151.460938 200.792969 145.816406 " fill-opacity="1" fill-rule="nonzero"/><path fill="#f2a74b" d="M 279.941406 152.015625 L 277.796875 134.222656 L 275.652344 152.015625 C 274.898438 158.296875 269.945312 163.25 263.664062 164.003906 L 245.871094 166.148438 L 263.664062 168.292969 C 269.945312 169.046875 274.898438 173.996094 275.652344 180.277344 L 277.796875 198.074219 L 279.941406 180.277344 C 280.695312 173.996094 285.648438 169.046875 291.929688 168.292969 L 309.722656 166.148438 L 291.929688 164.003906 C 285.648438 163.25 280.695312 158.296875 279.941406 152.015625 " fill-opacity="1" fill-rule="nonzero"/><g clip-path="url(#86747b6466)"><path fill="#f2a74b" d="M 314.957031 208.714844 C 273.601562 250.070312 206.304688 250.078125 164.941406 208.714844 C 123.585938 167.351562 123.585938 100.058594 164.941406 58.699219 C 185.621094 38.019531 212.785156 27.683594 239.949219 27.683594 C 267.113281 27.683594 294.273438 38.019531 314.957031 58.699219 C 356.3125 100.058594 356.3125 167.351562 314.957031 208.714844 Z M 150.71875 44.476562 C 105.875 89.320312 101.921875 159.78125 138.824219 209.167969 L 10.226562 322.160156 C 10.070312 322.296875 9.960938 322.46875 9.8125 322.609375 C 9.671875 322.738281 9.515625 322.828125 9.378906 322.964844 C 9.097656 323.246094 8.894531 323.578125 8.632812 323.875 C 8.203125 324.367188 7.773438 324.851562 7.40625 325.375 C 7.074219 325.847656 6.796875 326.339844 6.515625 326.835938 C 6.214844 327.363281 5.914062 327.890625 5.671875 328.441406 C 5.429688 328.976562 5.25 329.527344 5.066406 330.082031 C 4.886719 330.628906 4.703125 331.175781 4.578125 331.738281 C 4.445312 332.3125 4.371094 332.890625 4.296875 333.472656 C 4.222656 334.039062 4.148438 334.601562 4.132812 335.175781 C 4.113281 335.757812 4.148438 336.332031 4.1875 336.910156 C 4.222656 337.492188 4.261719 338.0625 4.351562 338.636719 C 4.445312 339.207031 4.589844 339.761719 4.734375 340.320312 C 4.882812 340.890625 5.03125 341.457031 5.234375 342.011719 C 5.4375 342.5625 5.695312 343.085938 5.953125 343.617188 C 6.210938 344.15625 6.472656 344.6875 6.785156 345.203125 C 7.097656 345.707031 7.464844 346.183594 7.832031 346.667969 C 8.09375 347.007812 8.289062 347.382812 8.578125 347.710938 C 8.707031 347.859375 8.871094 347.960938 9.003906 348.105469 C 9.140625 348.246094 9.238281 348.417969 9.378906 348.558594 L 25.09375 364.273438 C 25.230469 364.410156 25.386719 364.496094 25.527344 364.628906 C 25.675781 364.769531 25.785156 364.9375 25.945312 365.078125 C 26.320312 365.40625 26.738281 365.648438 27.136719 365.941406 C 27.519531 366.226562 27.894531 366.535156 28.292969 366.785156 C 28.898438 367.164062 29.523438 367.464844 30.160156 367.765625 C 30.550781 367.953125 30.933594 368.171875 31.335938 368.328125 C 32.066406 368.613281 32.8125 368.804688 33.566406 368.988281 C 33.902344 369.070312 34.226562 369.195312 34.566406 369.257812 C 35.664062 369.464844 36.773438 369.578125 37.886719 369.578125 C 37.890625 369.578125 37.894531 369.578125 37.894531 369.578125 C 39.101562 369.578125 40.308594 369.441406 41.5 369.203125 C 41.878906 369.125 42.238281 368.972656 42.613281 368.871094 C 43.410156 368.65625 44.203125 368.4375 44.96875 368.113281 C 45.425781 367.921875 45.847656 367.652344 46.289062 367.421875 C 46.9375 367.078125 47.578125 366.746094 48.191406 366.324219 C 48.648438 366.003906 49.066406 365.617188 49.5 365.253906 C 49.894531 364.917969 50.320312 364.648438 50.691406 364.277344 C 50.835938 364.132812 50.929688 363.960938 51.070312 363.820312 C 51.203125 363.675781 51.367188 363.574219 51.496094 363.425781 L 164.488281 234.832031 C 186.78125 251.488281 213.359375 259.835938 239.949219 259.835938 C 272.265625 259.835938 304.578125 247.535156 329.175781 222.9375 C 378.378906 173.730469 378.378906 93.679688 329.175781 44.476562 C 279.976562 -4.730469 199.921875 -4.71875 150.71875 44.476562 " fill-opacity="1" fill-rule="nonzero"/></g></svg>