<svg id="Layer_1" data-name="Layer 1" xmlns="http://www.w3.org/2000/svg" viewBox="0 0 484.09 196.09"><defs><style>.cls-1{fill:none;stroke:#f2a74a;stroke-miterlimit:10;stroke-width:5px;}.cls-2{fill:#f2a74a;}</style></defs><polygon class="cls-1" points="89 44.31 89 89.97 128.54 112.8 168.09 89.97 168.09 44.31 128.54 21.48 89 44.31"/><polygon class="cls-1" points="9.91 44.31 9.91 89.97 49.46 112.8 89 89.97 89 44.31 49.46 21.48 9.91 44.31"/><polygon class="cls-1" points="207.63 112.04 207.63 157.69 205.61 158.86 168.08 180.53 128.53 157.69 128.53 112.04 168.08 89.2 205.71 110.93 207.63 112.04"/><path class="cls-2" d="M183.49,70.69h-13.7V91.23H163V43.3h6.84V63.84h13.7V43.3h6.85V91.23h-6.85Z"/><path class="cls-2" d="M197.18,43.3H204v6.85h-6.85Zm0,13.7H204V91.23h-6.85Z"/><path class="cls-2" d="M210.19,67.27V57H217V67.27c0,5.48,6.85,16.43,6.85,16.43s6.84-11,6.84-16.43V57h6.85V67.27c0,8.9-10.27,24-10.27,24h-6.85S210.19,76.17,210.19,67.27Z"/><path class="cls-2" d="M260.17,57a10.26,10.26,0,0,1,10.28,10.27V77.54H249.9V81a3.4,3.4,0,0,0,3.43,3.43h15.75L267,91.23H253.33A10.25,10.25,0,0,1,243.06,81V67.27A10.25,10.25,0,0,1,253.33,57Zm-6.84,6.84a3.4,3.4,0,0,0-3.43,3.43v3.42h13.7V67.27a3.4,3.4,0,0,0-3.43-3.43Z"/><path class="cls-2" d="M205.71,110.93h-3.08v47.93h3l2-1.17V112Z"/><path class="cls-2" d="M219.75,110.93h-14l1.92,1.11v45.65l-2,1.17h3.87V138.32h10.27A10.26,10.26,0,0,0,230,128.05V121.2A10.26,10.26,0,0,0,219.75,110.93Zm3.42,17.12a3.39,3.39,0,0,1-3.42,3.42H209.48V117.78h10.27a3.39,3.39,0,0,1,3.42,3.42Z"/><path class="cls-2" d="M245.77,158.87A10.25,10.25,0,0,1,235.5,148.6V134.9a10.25,10.25,0,0,1,10.27-10.27h6.84a10.26,10.26,0,0,1,10.28,10.27v13.7a10.26,10.26,0,0,1-10.28,10.27Zm6.84-6.85A3.4,3.4,0,0,0,256,148.6V134.9a3.39,3.39,0,0,0-3.43-3.42h-6.84a3.39,3.39,0,0,0-3.43,3.42v13.7a3.4,3.4,0,0,0,3.43,3.42Z"/><path class="cls-2" d="M292.33,124.63l2.05,6.85H282.74a7.36,7.36,0,0,0-6.84,6.84v20.55h-6.85V124.63h6.85v6.3a6.86,6.86,0,0,1,6.84-6.3Z"/><path class="cls-2" d="M302.6,131.48h-6.85l2.06-6.85h4.79v-13.7h6.85v13.7h10.27l-2.06,6.85h-8.21V148.6a3.39,3.39,0,0,0,3.42,3.42h6.85l-2.06,6.85h-4.79A10.26,10.26,0,0,1,302.6,148.6Z"/><path class="cls-2" d="M323.14,124.63h4.79V121.2a10.35,10.35,0,0,1,10.28-10.27H343l2.05,6.85h-6.84a3.39,3.39,0,0,0-3.43,3.42v3.43h10.27L343,131.48h-8.22v27.39h-6.85V131.48h-6.84Z"/><path class="cls-2" d="M358.74,158.87a10.26,10.26,0,0,1-10.27-10.27V134.9a10.26,10.26,0,0,1,10.27-10.27h6.85a10.26,10.26,0,0,1,10.28,10.27v13.7a10.26,10.26,0,0,1-10.28,10.27Zm6.85-6.85A3.4,3.4,0,0,0,369,148.6V134.9a3.39,3.39,0,0,0-3.43-3.42h-6.85a3.39,3.39,0,0,0-3.42,3.42v13.7a3.39,3.39,0,0,0,3.42,3.42Z"/><path class="cls-2" d="M382,110.93h6.84V148.6A3.4,3.4,0,0,0,392.3,152h4.11l-2.06,6.85H392.3A10.25,10.25,0,0,1,382,148.6Z"/><path class="cls-2" d="M400.51,110.93h6.85v6.85h-6.85Zm0,13.7h6.85v34.24h-6.85Z"/><path class="cls-2" d="M423.79,158.87a10.26,10.26,0,0,1-10.27-10.27V134.9a10.26,10.26,0,0,1,10.27-10.27h6.85a10.26,10.26,0,0,1,10.27,10.27v13.7a10.26,10.26,0,0,1-10.27,10.27Zm6.85-6.85a3.39,3.39,0,0,0,3.42-3.42V134.9a3.38,3.38,0,0,0-3.42-3.42h-6.85a3.38,3.38,0,0,0-3.42,3.42v13.7a3.39,3.39,0,0,0,3.42,3.42Z"/><path class="cls-2" d="M456,145.17a10.27,10.27,0,0,1,0-20.54H471l2,6.85H456a3.39,3.39,0,0,0-3.42,3.42c0,1.92,1.37,3.42,4.11,3.42h6.85a10.28,10.28,0,0,1,0,20.55H447.76L445.7,152h17.81a3.39,3.39,0,0,0,3.42-3.42c0-1.92-1.37-3.43-4.11-3.43Z"/></svg>