<svg xmlns="http://www.w3.org/2000/svg" xmlns:xlink="http://www.w3.org/1999/xlink" width="500" zoomAndPan="magnify" viewBox="0 0 375 374.999991" height="500" preserveAspectRatio="xMidYMid meet" version="1.0"><defs><clipPath id="c896b4e664"><path d="M 76 14 L 339.457031 14 L 339.457031 339 L 76 339 Z M 76 14 " clip-rule="nonzero"/></clipPath><clipPath id="59d22c3ee1"><path d="M 35.707031 2.101562 L 88 2.101562 L 88 339 L 35.707031 339 Z M 35.707031 2.101562 " clip-rule="nonzero"/></clipPath><clipPath id="c38a11b29f"><path d="M 35.707031 306 L 295 306 L 295 372.601562 L 35.707031 372.601562 Z M 35.707031 306 " clip-rule="nonzero"/></clipPath></defs><g clip-path="url(#c896b4e664)"><path fill="#f3a849" d="M 333.457031 338.6875 L 81.921875 338.6875 C 78.722656 338.6875 76.128906 336.09375 76.128906 332.894531 L 76.128906 20.199219 C 76.128906 17 78.722656 14.402344 81.921875 14.402344 L 333.457031 14.402344 C 336.65625 14.402344 339.25 17 339.25 20.199219 L 339.25 332.894531 C 339.25 336.09375 336.65625 338.6875 333.457031 338.6875 Z M 87.714844 327.101562 L 327.664062 327.101562 L 327.664062 25.992188 L 87.714844 25.992188 Z M 87.714844 327.101562 " fill-opacity="1" fill-rule="evenodd"/></g><g clip-path="url(#59d22c3ee1)"><path fill="#f3a849" d="M 41.460938 338.6875 C 38.261719 338.6875 35.667969 336.09375 35.667969 332.894531 L 35.667969 28.152344 C 35.667969 13.804688 47.34375 2.128906 61.691406 2.128906 C 76.042969 2.128906 87.714844 13.804688 87.714844 28.152344 C 87.714844 31.351562 85.121094 33.945312 81.921875 33.945312 C 78.722656 33.945312 76.128906 31.351562 76.128906 28.152344 C 76.128906 20.191406 69.652344 13.71875 61.691406 13.71875 C 53.730469 13.71875 47.257812 20.191406 47.257812 28.152344 L 47.257812 332.894531 C 47.257812 336.09375 44.660156 338.6875 41.460938 338.6875 Z M 41.460938 338.6875 " fill-opacity="1" fill-rule="evenodd"/></g><g clip-path="url(#c38a11b29f)"><path fill="#f3a849" d="M 288.382812 372.949219 L 69.941406 372.949219 C 51.042969 372.949219 35.667969 357.574219 35.667969 338.675781 L 35.667969 332.894531 C 35.667969 318.542969 47.34375 306.871094 61.691406 306.871094 C 76.042969 306.871094 87.714844 318.542969 87.714844 332.894531 C 87.714844 336.09375 85.121094 338.6875 81.921875 338.6875 C 78.722656 338.6875 76.128906 336.09375 76.128906 332.894531 C 76.128906 324.933594 69.652344 318.457031 61.691406 318.457031 C 53.730469 318.457031 47.257812 324.933594 47.257812 332.894531 L 47.257812 338.675781 C 47.257812 351.183594 57.433594 361.363281 69.941406 361.363281 L 282.589844 361.363281 L 282.589844 332.730469 C 282.589844 329.53125 285.183594 326.9375 288.382812 326.9375 C 291.582031 326.9375 294.175781 329.53125 294.175781 332.730469 L 294.175781 367.15625 C 294.175781 370.355469 291.582031 372.949219 288.382812 372.949219 Z M 288.382812 372.949219 " fill-opacity="1" fill-rule="evenodd"/></g><path fill="#f3a849" d="M 127.953125 182.011719 L 110.859375 182.011719 C 107.660156 182.011719 105.066406 179.417969 105.066406 176.21875 C 105.066406 173.019531 107.660156 170.425781 110.859375 170.425781 L 127.953125 170.425781 C 131.15625 170.425781 133.75 173.019531 133.75 176.21875 C 133.75 179.417969 131.15625 182.011719 127.953125 182.011719 Z M 127.953125 182.011719 " fill-opacity="1" fill-rule="evenodd"/><path fill="#f3a849" d="M 210 182.011719 L 147.144531 182.011719 C 143.945312 182.011719 141.351562 179.417969 141.351562 176.21875 C 141.351562 173.019531 143.945312 170.425781 147.144531 170.425781 L 210 170.425781 C 213.199219 170.425781 215.792969 173.019531 215.792969 176.21875 C 215.792969 179.417969 213.199219 182.011719 210 182.011719 Z M 210 182.011719 " fill-opacity="1" fill-rule="evenodd"/><path fill="#f3a849" d="M 210 212.453125 L 110.859375 212.453125 C 107.660156 212.453125 105.066406 209.855469 105.066406 206.65625 C 105.066406 203.457031 107.660156 200.863281 110.859375 200.863281 L 210 200.863281 C 213.199219 200.863281 215.792969 203.457031 215.792969 206.65625 C 215.792969 209.855469 213.199219 212.453125 210 212.453125 Z M 210 212.453125 " fill-opacity="1" fill-rule="evenodd"/><path fill="#f3a849" d="M 154.078125 242.890625 L 110.859375 242.890625 C 107.660156 242.890625 105.066406 240.296875 105.066406 237.097656 C 105.066406 233.894531 107.660156 231.300781 110.859375 231.300781 L 154.074219 231.300781 C 157.273438 231.300781 159.871094 233.894531 159.871094 237.097656 C 159.871094 240.296875 157.277344 242.890625 154.078125 242.890625 Z M 154.078125 242.890625 " fill-opacity="1" fill-rule="evenodd"/><path fill="#f3a849" d="M 210 242.890625 L 173.800781 242.890625 C 170.601562 242.890625 168.007812 240.296875 168.007812 237.097656 C 168.007812 233.894531 170.601562 231.300781 173.800781 231.300781 L 210 231.300781 C 213.199219 231.300781 215.792969 233.894531 215.792969 237.097656 C 215.792969 240.296875 213.199219 242.890625 210 242.890625 Z M 210 242.890625 " fill-opacity="1" fill-rule="evenodd"/><path fill="#f3a849" d="M 210 273.328125 L 110.859375 273.328125 C 107.660156 273.328125 105.066406 270.734375 105.066406 267.535156 C 105.066406 264.335938 107.660156 261.742188 110.859375 261.742188 L 210 261.742188 C 213.199219 261.742188 215.792969 264.335938 215.792969 267.535156 C 215.792969 270.734375 213.199219 273.328125 210 273.328125 Z M 210 273.328125 " fill-opacity="1" fill-rule="evenodd"/><path fill="#f3a849" d="M 159.671875 303.769531 L 110.859375 303.769531 C 107.660156 303.769531 105.066406 301.175781 105.066406 297.972656 C 105.066406 294.773438 107.660156 292.179688 110.859375 292.179688 L 159.671875 292.179688 C 162.875 292.179688 165.46875 294.773438 165.46875 297.972656 C 165.46875 301.175781 162.875 303.769531 159.671875 303.769531 Z M 159.671875 303.769531 " fill-opacity="1" fill-rule="evenodd"/><path fill="#f3a849" d="M 210 303.769531 L 179.132812 303.769531 C 175.933594 303.769531 173.335938 301.175781 173.335938 297.972656 C 173.335938 294.773438 175.933594 292.179688 179.132812 292.179688 L 210 292.179688 C 213.199219 292.179688 215.792969 294.773438 215.792969 297.972656 C 215.792969 301.175781 213.199219 303.769531 210 303.769531 Z M 210 303.769531 " fill-opacity="1" fill-rule="evenodd"/><path fill="#f3a849" d="M 304.519531 212.453125 L 242.402344 212.453125 C 239.203125 212.453125 236.609375 209.855469 236.609375 206.65625 L 236.609375 176.21875 C 236.609375 173.019531 239.203125 170.425781 242.402344 170.425781 L 304.519531 170.425781 C 307.71875 170.425781 310.3125 173.019531 310.3125 176.21875 L 310.3125 206.65625 C 310.3125 209.855469 307.71875 212.453125 304.519531 212.453125 Z M 248.195312 200.863281 L 298.722656 200.863281 L 298.722656 182.011719 L 248.195312 182.011719 Z M 248.195312 200.863281 " fill-opacity="1" fill-rule="evenodd"/><path fill="#f3a849" d="M 304.519531 243.382812 L 242.402344 243.382812 C 239.203125 243.382812 236.609375 240.785156 236.609375 237.585938 C 236.609375 234.386719 239.203125 231.792969 242.402344 231.792969 L 304.519531 231.792969 C 307.71875 231.792969 310.3125 234.386719 310.3125 237.585938 C 310.3125 240.785156 307.71875 243.382812 304.519531 243.382812 Z M 304.519531 243.382812 " fill-opacity="1" fill-rule="evenodd"/><path fill="#f3a849" d="M 304.519531 273.902344 L 242.402344 273.902344 C 239.203125 273.902344 236.609375 271.308594 236.609375 268.109375 C 236.609375 264.90625 239.203125 262.3125 242.402344 262.3125 L 304.519531 262.3125 C 307.71875 262.3125 310.3125 264.90625 310.3125 268.109375 C 310.3125 271.308594 307.71875 273.902344 304.519531 273.902344 Z M 304.519531 273.902344 " fill-opacity="1" fill-rule="evenodd"/><path fill="#f3a849" d="M 304.519531 304.421875 L 242.402344 304.421875 C 239.203125 304.421875 236.609375 301.828125 236.609375 298.628906 C 236.609375 295.429688 239.203125 292.835938 242.402344 292.835938 L 304.519531 292.835938 C 307.71875 292.835938 310.3125 295.429688 310.3125 298.628906 C 310.3125 301.828125 307.71875 304.421875 304.519531 304.421875 Z M 304.519531 304.421875 " fill-opacity="1" fill-rule="evenodd"/><path fill="#f3a849" d="M 304.519531 151.894531 L 110.859375 151.894531 C 107.660156 151.894531 105.066406 149.300781 105.066406 146.101562 L 105.066406 54.460938 C 105.066406 51.261719 107.660156 48.667969 110.859375 48.667969 L 304.519531 48.667969 C 307.71875 48.667969 310.3125 51.261719 310.3125 54.460938 L 310.3125 146.101562 C 310.3125 149.300781 307.71875 151.894531 304.519531 151.894531 Z M 116.65625 140.308594 L 298.726562 140.308594 L 298.726562 60.257812 L 116.65625 60.257812 Z M 116.65625 140.308594 " fill-opacity="1" fill-rule="evenodd"/><path fill="#f3a849" d="M 222.390625 151.894531 C 220.851562 151.894531 219.320312 151.289062 218.179688 150.085938 L 169.703125 98.914062 L 114.820312 150.328125 C 112.484375 152.519531 108.820312 152.398438 106.632812 150.0625 C 104.445312 147.726562 104.5625 144.0625 106.898438 141.875 L 165.984375 86.515625 C 168.308594 84.335938 171.960938 84.445312 174.152344 86.761719 L 226.59375 142.117188 C 228.796875 144.441406 228.695312 148.109375 226.375 150.308594 C 225.253906 151.367188 223.820312 151.894531 222.390625 151.894531 Z M 222.390625 151.894531 " fill-opacity="1" fill-rule="evenodd"/><path fill="#f3a849" d="M 278.472656 151.894531 C 277.035156 151.894531 275.597656 151.363281 274.476562 150.296875 L 229.730469 107.648438 L 201.847656 125.917969 C 199.171875 127.671875 195.582031 126.921875 193.828125 124.246094 C 192.074219 121.570312 192.824219 117.976562 195.5 116.222656 L 227.226562 95.4375 C 229.476562 93.960938 232.449219 94.230469 234.398438 96.089844 L 282.472656 141.910156 C 284.789062 144.117188 284.875 147.785156 282.667969 150.101562 C 281.527344 151.292969 280.003906 151.894531 278.472656 151.894531 Z M 278.472656 151.894531 " fill-opacity="1" fill-rule="evenodd"/><path fill="#f3a849" d="M 273.460938 104.015625 C 263.613281 104.015625 255.601562 96.003906 255.601562 86.15625 C 255.601562 76.308594 263.613281 68.296875 273.460938 68.296875 C 283.308594 68.296875 291.320312 76.308594 291.320312 86.15625 C 291.320312 96.003906 283.308594 104.015625 273.460938 104.015625 Z M 273.460938 79.886719 C 270.003906 79.886719 267.191406 82.699219 267.191406 86.15625 C 267.191406 89.613281 270.003906 92.425781 273.460938 92.425781 C 276.917969 92.425781 279.730469 89.613281 279.730469 86.15625 C 279.730469 82.699219 276.917969 79.886719 273.460938 79.886719 Z M 273.460938 79.886719 " fill-opacity="1" fill-rule="evenodd"/></svg>