<svg xmlns="http://www.w3.org/2000/svg" xmlns:xlink="http://www.w3.org/1999/xlink" width="500" zoomAndPan="magnify" viewBox="0 0 375 374.999991" height="500" preserveAspectRatio="xMidYMid meet" version="1.0"><defs><clipPath id="cd80ff49bc"><path d="M 86.835938 297.574219 L 302.0625 297.574219 L 302.0625 364.441406 L 86.835938 364.441406 Z M 86.835938 297.574219 " clip-rule="nonzero"/></clipPath><clipPath id="5cf224da64"><path d="M 194.425781 364.441406 L 302.015625 297.574219 L 86.835938 297.574219 Z M 194.425781 364.441406 " clip-rule="nonzero"/></clipPath><clipPath id="e2fad0e3cc"><path d="M 85 84.777344 L 305 84.777344 L 305 307.527344 L 85 307.527344 Z M 85 84.777344 " clip-rule="nonzero"/></clipPath><clipPath id="4274623513"><path d="M 37.84375 5.046875 L 351.34375 5.046875 L 351.34375 370.242188 L 37.84375 370.242188 Z M 37.84375 5.046875 " clip-rule="nonzero"/></clipPath><clipPath id="71b722e5d1"><path d="M 194.421875 370.242188 L 37.503906 278.941406 L 37.503906 96.34375 L 194.421875 5.046875 L 351.34375 96.34375 L 351.34375 278.941406 Z M 194.421875 370.242188 " clip-rule="nonzero"/></clipPath></defs><g clip-path="url(#cd80ff49bc)"><g clip-path="url(#5cf224da64)"><path fill="#f3a849" d="M 86.835938 297.574219 L 302.0625 297.574219 L 302.0625 364.441406 L 86.835938 364.441406 Z M 86.835938 297.574219 " fill-opacity="1" fill-rule="nonzero"/></g></g><g clip-path="url(#e2fad0e3cc)"><path fill="#f3a849" d="M 133.917969 145.699219 C 133.921875 143.707031 134.019531 141.722656 134.21875 139.742188 C 134.414062 137.757812 134.707031 135.792969 135.097656 133.839844 C 135.488281 131.886719 135.972656 129.957031 136.550781 128.050781 C 137.132812 126.148438 137.800781 124.273438 138.566406 122.433594 C 139.328125 120.597656 140.179688 118.796875 141.117188 117.042969 C 142.058594 115.285156 143.082031 113.582031 144.1875 111.925781 C 145.292969 110.269531 146.480469 108.671875 147.742188 107.132812 C 149.003906 105.59375 150.339844 104.121094 151.75 102.710938 C 153.15625 101.304688 154.628906 99.96875 156.167969 98.703125 C 157.707031 97.441406 159.304688 96.257812 160.960938 95.148438 C 162.617188 94.042969 164.320312 93.019531 166.078125 92.078125 C 167.832031 91.140625 169.632812 90.289062 171.46875 89.523438 C 173.308594 88.761719 175.179688 88.089844 177.085938 87.511719 C 178.992188 86.933594 180.921875 86.445312 182.875 86.054688 C 184.824219 85.667969 186.792969 85.371094 188.773438 85.175781 C 190.757812 84.976562 192.742188 84.878906 194.734375 84.875 C 275.117188 87.71875 275.273438 203.425781 194.941406 206.511719 C 192.945312 206.519531 190.953125 206.425781 188.96875 206.234375 C 186.980469 206.042969 185.007812 205.753906 183.050781 205.371094 C 181.09375 204.984375 179.160156 204.503906 177.246094 203.929688 C 175.335938 203.355469 173.457031 202.6875 171.613281 201.925781 C 169.769531 201.167969 167.964844 200.320312 166.203125 199.382812 C 164.441406 198.445312 162.730469 197.421875 161.070312 196.316406 C 159.40625 195.210938 157.804688 194.027344 156.257812 192.765625 C 154.714844 191.5 153.234375 190.164062 151.824219 188.757812 C 150.410156 187.347656 149.066406 185.875 147.800781 184.332031 C 146.53125 182.792969 145.339844 181.195312 144.230469 179.535156 C 143.117188 177.878906 142.09375 176.171875 141.148438 174.414062 C 140.207031 172.652344 139.351562 170.851562 138.585938 169.011719 C 137.820312 167.167969 137.144531 165.292969 136.5625 163.382812 C 135.980469 161.476562 135.496094 159.542969 135.101562 157.585938 C 134.710938 155.628906 134.417969 153.65625 134.21875 151.671875 C 134.019531 149.6875 133.921875 147.695312 133.917969 145.699219 Z M 256.289062 206.542969 C 255.476562 206.046875 254.613281 205.671875 253.695312 205.425781 C 252.78125 205.179688 251.847656 205.070312 250.894531 205.09375 C 249.945312 205.117188 249.019531 205.273438 248.117188 205.566406 C 247.210938 205.855469 246.367188 206.269531 245.582031 206.804688 C 243.769531 208.277344 241.898438 209.667969 239.96875 210.976562 C 238.039062 212.285156 236.054688 213.511719 234.015625 214.648438 C 231.980469 215.789062 229.898438 216.835938 227.769531 217.796875 C 225.644531 218.757812 223.480469 219.621094 221.277344 220.394531 C 219.074219 221.167969 216.84375 221.84375 214.582031 222.425781 C 212.324219 223.003906 210.042969 223.488281 207.742188 223.871094 C 205.441406 224.253906 203.125 224.539062 200.800781 224.722656 C 198.472656 224.90625 196.144531 224.992188 193.808594 224.976562 C 191.476562 224.960938 189.148438 224.84375 186.824219 224.625 C 184.5 224.410156 182.191406 224.089844 179.894531 223.675781 C 177.597656 223.257812 175.324219 222.746094 173.074219 222.132812 C 170.820312 221.519531 168.601562 220.8125 166.410156 220.007812 C 164.21875 219.207031 162.066406 218.308594 159.953125 217.320312 C 157.839844 216.332031 155.773438 215.253906 153.753906 214.085938 C 151.730469 212.917969 149.765625 211.667969 147.851562 210.332031 C 145.941406 208.992188 144.089844 207.578125 142.296875 206.082031 C 141.621094 205.769531 140.917969 205.546875 140.191406 205.40625 C 139.460938 205.265625 138.722656 205.214844 137.980469 205.253906 C 137.238281 205.292969 136.511719 205.421875 135.800781 205.636719 C 135.089844 205.851562 134.414062 206.148438 133.777344 206.527344 C 130.035156 209.019531 126.460938 211.726562 123.050781 214.65625 C 119.644531 217.585938 116.429688 220.714844 113.410156 224.039062 C 110.386719 227.367188 107.582031 230.863281 104.992188 234.539062 C 102.402344 238.210938 100.046875 242.027344 97.925781 245.988281 C 95.808594 249.953125 93.941406 254.03125 92.324219 258.222656 C 90.707031 262.414062 89.355469 266.691406 88.265625 271.050781 C 87.179688 275.410156 86.363281 279.820312 85.816406 284.28125 C 85.273438 288.742188 85.003906 293.21875 85.011719 297.714844 C 85.011719 298.328125 85.070312 298.933594 85.191406 299.539062 C 85.308594 300.140625 85.488281 300.722656 85.722656 301.289062 C 85.957031 301.855469 86.242188 302.394531 86.585938 302.90625 C 86.925781 303.417969 87.3125 303.886719 87.746094 304.324219 C 88.179688 304.757812 88.652344 305.144531 89.164062 305.484375 C 89.671875 305.824219 90.210938 306.113281 90.777344 306.347656 C 91.347656 306.582031 91.929688 306.757812 92.53125 306.878906 C 93.132812 307 93.742188 307.058594 94.355469 307.058594 L 295.421875 307.058594 C 296.035156 307.058594 296.644531 307 297.246094 306.878906 C 297.847656 306.757812 298.433594 306.582031 299 306.347656 C 299.566406 306.113281 300.105469 305.824219 300.613281 305.484375 C 301.125 305.144531 301.597656 304.757812 302.03125 304.324219 C 302.464844 303.886719 302.851562 303.417969 303.191406 302.90625 C 303.535156 302.394531 303.820312 301.855469 304.054688 301.289062 C 304.292969 300.722656 304.46875 300.140625 304.585938 299.539062 C 304.707031 298.933594 304.765625 298.328125 304.765625 297.714844 C 304.761719 293.230469 304.488281 288.761719 303.9375 284.3125 C 303.390625 279.863281 302.570312 275.464844 301.484375 271.113281 C 300.398438 266.761719 299.050781 262.496094 297.445312 258.308594 C 295.835938 254.125 293.980469 250.050781 291.875 246.09375 C 289.769531 242.136719 287.433594 238.320312 284.863281 234.644531 C 282.289062 230.972656 279.503906 227.46875 276.507812 224.136719 C 273.507812 220.804688 270.316406 217.664062 266.933594 214.722656 C 263.550781 211.777344 260.003906 209.050781 256.289062 206.542969 Z M 256.289062 206.542969 " fill-opacity="1" fill-rule="nonzero"/></g><g clip-path="url(#4274623513)"><g clip-path="url(#71b722e5d1)"><path stroke-linecap="butt" transform="matrix(0, 0.75, -0.75, 0, 351.342783, 5.045278)" fill="none" stroke-linejoin="miter" d="M 486.929245 209.227891 L 365.194862 418.451863 L 121.731304 418.451863 L 0.00212967 209.227891 L 121.731304 -0.0012893 L 365.194862 -0.0012893 Z M 486.929245 209.227891 " stroke="#f3a849" stroke-width="26" stroke-opacity="1" stroke-miterlimit="4"/></g></g></svg>