<svg xmlns="http://www.w3.org/2000/svg" xmlns:xlink="http://www.w3.org/1999/xlink" width="500" zoomAndPan="magnify" viewBox="0 0 375 374.999991" height="500" preserveAspectRatio="xMidYMid meet" version="1.0"><defs><clipPath id="0f7920fe2f"><path d="M 230 156 L 369.65625 156 L 369.65625 285 L 230 285 Z M 230 156 " clip-rule="nonzero"/></clipPath><clipPath id="6d1afb74e6"><path d="M 253 51.199219 L 342 51.199219 L 342 140 L 253 140 Z M 253 51.199219 " clip-rule="nonzero"/></clipPath><clipPath id="a908d25916"><path d="M 5.15625 156 L 145 156 L 145 285 L 5.15625 285 Z M 5.15625 156 " clip-rule="nonzero"/></clipPath><clipPath id="009d2e95d9"><path d="M 33 51.199219 L 122 51.199219 L 122 140 L 33 140 Z M 33 51.199219 " clip-rule="nonzero"/></clipPath></defs><path fill="#f3a849" d="M 206.457031 192.058594 L 168.53125 192.058594 C 138.921875 192.058594 114.925781 216.054688 114.925781 245.664062 L 114.925781 306.710938 C 161.75 323.777344 213.167969 323.777344 259.992188 306.710938 L 259.992188 245.664062 C 260.066406 216.054688 236.070312 192.058594 206.457031 192.058594 Z M 206.457031 192.058594 " fill-opacity="1" fill-rule="nonzero"/><path fill="#f3a849" d="M 231.476562 130.5 C 231.476562 131.941406 231.40625 133.378906 231.261719 134.8125 C 231.121094 136.246094 230.910156 137.667969 230.628906 139.082031 C 230.347656 140.492188 230 141.890625 229.582031 143.265625 C 229.164062 144.644531 228.679688 146 228.128906 147.332031 C 227.574219 148.660156 226.960938 149.960938 226.28125 151.234375 C 225.601562 152.503906 224.863281 153.738281 224.0625 154.933594 C 223.261719 156.132812 222.40625 157.289062 221.492188 158.402344 C 220.578125 159.515625 219.613281 160.582031 218.59375 161.597656 C 217.574219 162.617188 216.507812 163.582031 215.394531 164.496094 C 214.28125 165.410156 213.125 166.269531 211.929688 167.070312 C 210.730469 167.867188 209.496094 168.609375 208.226562 169.289062 C 206.957031 169.964844 205.65625 170.582031 204.324219 171.132812 C 202.996094 171.683594 201.640625 172.167969 200.261719 172.585938 C 198.882812 173.003906 197.488281 173.355469 196.074219 173.636719 C 194.664062 173.917969 193.238281 174.128906 191.804688 174.269531 C 190.371094 174.410156 188.9375 174.480469 187.496094 174.480469 C 186.054688 174.480469 184.617188 174.410156 183.183594 174.269531 C 181.75 174.128906 180.328125 173.917969 178.914062 173.636719 C 177.503906 173.355469 176.105469 173.003906 174.730469 172.585938 C 173.351562 172.167969 171.996094 171.683594 170.664062 171.132812 C 169.335938 170.582031 168.035156 169.964844 166.761719 169.289062 C 165.492188 168.609375 164.257812 167.867188 163.0625 167.070312 C 161.863281 166.269531 160.707031 165.410156 159.59375 164.496094 C 158.480469 163.582031 157.414062 162.617188 156.398438 161.597656 C 155.378906 160.582031 154.410156 159.515625 153.5 158.402344 C 152.585938 157.289062 151.726562 156.132812 150.925781 154.933594 C 150.128906 153.738281 149.386719 152.503906 148.707031 151.234375 C 148.03125 149.960938 147.414062 148.660156 146.863281 147.332031 C 146.3125 146 145.828125 144.644531 145.410156 143.265625 C 144.992188 141.890625 144.640625 140.492188 144.359375 139.082031 C 144.078125 137.667969 143.867188 136.246094 143.726562 134.8125 C 143.585938 133.378906 143.515625 131.941406 143.515625 130.5 C 143.515625 129.058594 143.585938 127.625 143.726562 126.191406 C 143.867188 124.757812 144.078125 123.332031 144.359375 121.921875 C 144.640625 120.507812 144.992188 119.113281 145.410156 117.734375 C 145.828125 116.355469 146.3125 115 146.863281 113.671875 C 147.414062 112.339844 148.03125 111.039062 148.707031 109.769531 C 149.386719 108.5 150.128906 107.265625 150.925781 106.066406 C 151.726562 104.871094 152.585938 103.714844 153.5 102.601562 C 154.410156 101.488281 155.378906 100.421875 156.398438 99.402344 C 157.414062 98.382812 158.480469 97.417969 159.59375 96.503906 C 160.707031 95.589844 161.863281 94.734375 163.0625 93.933594 C 164.257812 93.132812 165.492188 92.394531 166.761719 91.714844 C 168.035156 91.035156 169.335938 90.417969 170.664062 89.867188 C 171.996094 89.316406 173.351562 88.832031 174.730469 88.414062 C 176.105469 87.996094 177.503906 87.648438 178.914062 87.367188 C 180.328125 87.085938 181.75 86.875 183.183594 86.734375 C 184.617188 86.589844 186.054688 86.519531 187.496094 86.519531 C 188.9375 86.519531 190.371094 86.589844 191.804688 86.734375 C 193.238281 86.875 194.664062 87.085938 196.074219 87.367188 C 197.488281 87.648438 198.882812 87.996094 200.261719 88.414062 C 201.640625 88.832031 202.996094 89.316406 204.324219 89.867188 C 205.65625 90.417969 206.957031 91.035156 208.226562 91.714844 C 209.496094 92.394531 210.730469 93.132812 211.929688 93.933594 C 213.125 94.734375 214.28125 95.589844 215.394531 96.503906 C 216.507812 97.417969 217.574219 98.382812 218.59375 99.402344 C 219.613281 100.421875 220.578125 101.488281 221.492188 102.601562 C 222.40625 103.714844 223.261719 104.871094 224.0625 106.066406 C 224.863281 107.265625 225.601562 108.5 226.28125 109.769531 C 226.960938 111.039062 227.574219 112.339844 228.128906 113.671875 C 228.679688 115 229.164062 116.355469 229.582031 117.734375 C 230 119.113281 230.347656 120.507812 230.628906 121.921875 C 230.910156 123.332031 231.121094 124.757812 231.261719 126.191406 C 231.40625 127.625 231.476562 129.058594 231.476562 130.5 Z M 231.476562 130.5 " fill-opacity="1" fill-rule="nonzero"/><g clip-path="url(#0f7920fe2f)"><path fill="#f3a849" d="M 316.226562 156.757812 L 278.300781 156.757812 C 257.441406 156.757812 239.351562 168.71875 230.527344 186.148438 C 254.011719 195.703125 270.640625 218.753906 270.640625 245.59375 L 270.640625 282.496094 C 303.898438 286.726562 337.960938 283.007812 369.832031 271.410156 L 369.832031 210.363281 C 369.832031 180.753906 345.835938 156.757812 316.226562 156.757812 Z M 316.226562 156.757812 " fill-opacity="1" fill-rule="nonzero"/></g><g clip-path="url(#6d1afb74e6)"><path fill="#f3a849" d="M 341.242188 95.199219 C 341.242188 96.640625 341.171875 98.078125 341.03125 99.511719 C 340.890625 100.945312 340.679688 102.367188 340.398438 103.78125 C 340.117188 105.191406 339.765625 106.589844 339.347656 107.96875 C 338.929688 109.34375 338.445312 110.699219 337.894531 112.03125 C 337.34375 113.359375 336.726562 114.660156 336.050781 115.933594 C 335.371094 117.203125 334.628906 118.4375 333.832031 119.632812 C 333.03125 120.832031 332.171875 121.988281 331.257812 123.101562 C 330.347656 124.214844 329.378906 125.28125 328.359375 126.296875 C 327.34375 127.316406 326.277344 128.285156 325.164062 129.195312 C 324.050781 130.109375 322.894531 130.96875 321.695312 131.769531 C 320.5 132.570312 319.265625 133.308594 317.996094 133.988281 C 316.722656 134.664062 315.421875 135.28125 314.09375 135.832031 C 312.761719 136.382812 311.40625 136.867188 310.03125 137.285156 C 308.652344 137.703125 307.253906 138.054688 305.84375 138.335938 C 304.429688 138.617188 303.007812 138.828125 301.574219 138.96875 C 300.140625 139.109375 298.703125 139.179688 297.261719 139.179688 C 295.820312 139.179688 294.386719 139.109375 292.953125 138.96875 C 291.519531 138.828125 290.09375 138.617188 288.683594 138.335938 C 287.269531 138.054688 285.875 137.703125 284.496094 137.285156 C 283.117188 136.867188 281.761719 136.382812 280.433594 135.832031 C 279.101562 135.28125 277.800781 134.664062 276.53125 133.988281 C 275.261719 133.308594 274.027344 132.570312 272.828125 131.769531 C 271.632812 130.96875 270.476562 130.109375 269.363281 129.195312 C 268.25 128.285156 267.183594 127.316406 266.164062 126.296875 C 265.144531 125.28125 264.179688 124.214844 263.265625 123.101562 C 262.351562 121.988281 261.496094 120.832031 260.695312 119.632812 C 259.894531 118.4375 259.15625 117.203125 258.476562 115.933594 C 257.796875 114.660156 257.183594 113.359375 256.628906 112.03125 C 256.078125 110.699219 255.59375 109.34375 255.175781 107.96875 C 254.757812 106.589844 254.410156 105.191406 254.128906 103.78125 C 253.847656 102.367188 253.636719 100.945312 253.496094 99.511719 C 253.351562 98.078125 253.28125 96.640625 253.28125 95.199219 C 253.28125 93.761719 253.351562 92.324219 253.496094 90.890625 C 253.636719 89.457031 253.847656 88.03125 254.128906 86.621094 C 254.410156 85.207031 254.757812 83.8125 255.175781 82.433594 C 255.59375 81.054688 256.078125 79.699219 256.628906 78.371094 C 257.183594 77.039062 257.796875 75.738281 258.476562 74.46875 C 259.15625 73.199219 259.894531 71.964844 260.695312 70.765625 C 261.496094 69.570312 262.351562 68.414062 263.265625 67.300781 C 264.179688 66.1875 265.144531 65.121094 266.164062 64.101562 C 267.183594 63.082031 268.25 62.117188 269.363281 61.203125 C 270.476562 60.289062 271.632812 59.433594 272.828125 58.632812 C 274.027344 57.832031 275.261719 57.09375 276.53125 56.414062 C 277.800781 55.734375 279.101562 55.121094 280.433594 54.566406 C 281.761719 54.015625 283.117188 53.53125 284.496094 53.113281 C 285.875 52.695312 287.269531 52.347656 288.683594 52.066406 C 290.09375 51.785156 291.519531 51.574219 292.953125 51.433594 C 294.386719 51.289062 295.820312 51.21875 297.261719 51.21875 C 298.703125 51.21875 300.140625 51.289062 301.574219 51.433594 C 303.007812 51.574219 304.429688 51.785156 305.84375 52.066406 C 307.253906 52.347656 308.652344 52.695312 310.03125 53.113281 C 311.40625 53.53125 312.761719 54.015625 314.09375 54.566406 C 315.421875 55.121094 316.722656 55.734375 317.996094 56.414062 C 319.265625 57.09375 320.5 57.832031 321.695312 58.632812 C 322.894531 59.433594 324.050781 60.289062 325.164062 61.203125 C 326.277344 62.117188 327.34375 63.082031 328.359375 64.101562 C 329.378906 65.121094 330.347656 66.1875 331.257812 67.300781 C 332.171875 68.414062 333.03125 69.570312 333.832031 70.765625 C 334.628906 71.964844 335.371094 73.199219 336.050781 74.46875 C 336.726562 75.738281 337.34375 77.039062 337.894531 78.371094 C 338.445312 79.699219 338.929688 81.054688 339.347656 82.433594 C 339.765625 83.8125 340.117188 85.207031 340.398438 86.621094 C 340.679688 88.03125 340.890625 89.457031 341.03125 90.890625 C 341.171875 92.324219 341.242188 93.761719 341.242188 95.199219 Z M 341.242188 95.199219 " fill-opacity="1" fill-rule="nonzero"/></g><g clip-path="url(#a908d25916)"><path fill="#f3a849" d="M 144.464844 186.222656 C 135.636719 168.792969 117.550781 156.832031 96.691406 156.832031 L 58.765625 156.832031 C 29.152344 156.757812 5.15625 180.753906 5.15625 210.363281 L 5.15625 271.410156 C 37.101562 283.082031 71.089844 286.726562 104.347656 282.496094 L 104.347656 245.59375 C 104.347656 218.753906 120.976562 195.703125 144.464844 186.222656 Z M 144.464844 186.222656 " fill-opacity="1" fill-rule="nonzero"/></g><g clip-path="url(#009d2e95d9)"><path fill="#f3a849" d="M 121.707031 95.199219 C 121.707031 96.640625 121.636719 98.078125 121.496094 99.511719 C 121.355469 100.945312 121.144531 102.367188 120.863281 103.78125 C 120.582031 105.191406 120.230469 106.589844 119.8125 107.96875 C 119.394531 109.34375 118.910156 110.699219 118.359375 112.03125 C 117.808594 113.359375 117.195312 114.660156 116.515625 115.933594 C 115.835938 117.203125 115.097656 118.4375 114.296875 119.632812 C 113.496094 120.832031 112.636719 121.988281 111.726562 123.101562 C 110.8125 124.214844 109.84375 125.28125 108.828125 126.296875 C 107.808594 127.316406 106.742188 128.285156 105.628906 129.195312 C 104.515625 130.109375 103.359375 130.96875 102.160156 131.769531 C 100.964844 132.570312 99.730469 133.308594 98.460938 133.988281 C 97.191406 134.664062 95.890625 135.28125 94.558594 135.832031 C 93.226562 136.382812 91.871094 136.867188 90.496094 137.285156 C 89.117188 137.703125 87.71875 138.054688 86.308594 138.335938 C 84.894531 138.617188 83.472656 138.828125 82.039062 138.96875 C 80.605469 139.109375 79.167969 139.179688 77.726562 139.179688 C 76.289062 139.179688 74.851562 139.109375 73.417969 138.96875 C 71.984375 138.828125 70.558594 138.617188 69.148438 138.335938 C 67.734375 138.054688 66.339844 137.703125 64.960938 137.285156 C 63.582031 136.867188 62.226562 136.382812 60.898438 135.832031 C 59.566406 135.28125 58.265625 134.664062 56.996094 133.988281 C 55.726562 133.308594 54.492188 132.570312 53.292969 131.769531 C 52.097656 130.96875 50.941406 130.109375 49.828125 129.195312 C 48.714844 128.285156 47.648438 127.316406 46.628906 126.296875 C 45.609375 125.28125 44.644531 124.214844 43.730469 123.101562 C 42.816406 121.988281 41.960938 120.832031 41.160156 119.632812 C 40.359375 118.4375 39.621094 117.203125 38.941406 115.933594 C 38.261719 114.660156 37.648438 113.359375 37.097656 112.03125 C 36.542969 110.699219 36.058594 109.34375 35.640625 107.96875 C 35.222656 106.589844 34.875 105.191406 34.59375 103.78125 C 34.3125 102.367188 34.101562 100.945312 33.960938 99.511719 C 33.820312 98.078125 33.746094 96.640625 33.746094 95.199219 C 33.746094 93.761719 33.820312 92.324219 33.960938 90.890625 C 34.101562 89.457031 34.3125 88.03125 34.59375 86.621094 C 34.875 85.207031 35.222656 83.8125 35.640625 82.433594 C 36.058594 81.054688 36.542969 79.699219 37.097656 78.371094 C 37.648438 77.039062 38.261719 75.738281 38.941406 74.46875 C 39.621094 73.199219 40.359375 71.964844 41.160156 70.765625 C 41.960938 69.570312 42.816406 68.414062 43.730469 67.300781 C 44.644531 66.1875 45.609375 65.121094 46.628906 64.101562 C 47.648438 63.082031 48.714844 62.117188 49.828125 61.203125 C 50.941406 60.289062 52.097656 59.433594 53.292969 58.632812 C 54.492188 57.832031 55.726562 57.09375 56.996094 56.414062 C 58.265625 55.734375 59.566406 55.121094 60.898438 54.566406 C 62.226562 54.015625 63.582031 53.53125 64.960938 53.113281 C 66.339844 52.695312 67.734375 52.347656 69.148438 52.066406 C 70.558594 51.785156 71.984375 51.574219 73.417969 51.433594 C 74.851562 51.289062 76.289062 51.21875 77.726562 51.21875 C 79.167969 51.21875 80.605469 51.289062 82.039062 51.433594 C 83.472656 51.574219 84.894531 51.785156 86.308594 52.066406 C 87.71875 52.347656 89.117188 52.695312 90.496094 53.113281 C 91.871094 53.53125 93.226562 54.015625 94.558594 54.566406 C 95.890625 55.121094 97.191406 55.734375 98.460938 56.414062 C 99.730469 57.09375 100.964844 57.832031 102.160156 58.632812 C 103.359375 59.433594 104.515625 60.289062 105.628906 61.203125 C 106.742188 62.117188 107.808594 63.082031 108.828125 64.101562 C 109.84375 65.121094 110.8125 66.1875 111.726562 67.300781 C 112.636719 68.414062 113.496094 69.570312 114.296875 70.765625 C 115.097656 71.964844 115.835938 73.199219 116.515625 74.46875 C 117.195312 75.738281 117.808594 77.039062 118.359375 78.371094 C 118.910156 79.699219 119.394531 81.054688 119.8125 82.433594 C 120.230469 83.8125 120.582031 85.207031 120.863281 86.621094 C 121.144531 88.03125 121.355469 89.457031 121.496094 90.890625 C 121.636719 92.324219 121.707031 93.761719 121.707031 95.199219 Z M 121.707031 95.199219 " fill-opacity="1" fill-rule="nonzero"/></g></svg>